<svg id="Слой_1" xmlns="http://www.w3.org/2000/svg" viewBox="0 0 212.3 59.1"><style>.st0{fill:#049595;}</style><path class="st0" d="M15.8 1C14.6 6.5 9.9 11 1.4 11H0v7.8h13v39h10.2V1h-7.4zM41.3 1l-1.2 30h9.8c.7-2.5 2.6-4.1 5.1-4.1 3.9 0 6.2 2.7 6.2 8.2v6c0 7.6-1.8 9.4-5.9 9.4-3.8 0-5.8-1.9-5.8-10.1H39.4V43c0 10.5 6 16.1 16.3 16.1 11 0 15.7-5.9 15.7-18.8v-5.5c0-10.4-4.6-16.6-13.9-16.6-2.8 0-5.4 1-8 3.7l.6-12.2h18.7V1H41.3zM115.4 0c-8.9 0-16 5.9-16 15v28.7c0 9.1 7.1 15.4 16 15.4 9.6 0 15.8-6.1 15.8-15.4V15c0-9.2-6.2-15-15.8-15zm0 8.8c2.9 0 5.5 1.8 5.5 5.2v30.4c0 3.4-2.6 5.9-5.5 5.9-3 0-5.8-2.2-5.8-5.6V14.1c.1-3.4 2.8-5.3 5.8-5.3zM156 0c-8.9 0-16 5.9-16 15v28.7c0 9.1 7.1 15.4 16 15.4 9.6 0 15.8-6.1 15.8-15.4V15c0-9.2-6.2-15-15.8-15zm0 8.8c2.9 0 5.5 1.8 5.5 5.2v30.4c0 3.4-2.6 5.9-5.5 5.9-3 0-5.8-2.2-5.8-5.6V14.1c0-3.4 2.8-5.3 5.8-5.3zM196.6 0c-8.9 0-16 5.9-16 15v28.7c0 9.1 7.1 15.4 16 15.4 9.6 0 15.8-6.1 15.8-15.4V15c-.1-9.2-6.2-15-15.8-15zm0 8.8c2.9 0 5.5 1.8 5.5 5.2v30.4c0 3.4-2.6 5.9-5.5 5.9-3 0-5.8-2.2-5.8-5.6V14.1c0-3.4 2.7-5.3 5.8-5.3z"/></svg>