<svg id="Слой_1" xmlns="http://www.w3.org/2000/svg" viewBox="0 0 66 78"><style>.st0{fill-rule:evenodd;clip-rule:evenodd;fill:#049595;}</style><path class="st0" d="M42.1 13.2c2.2-1.1 3.6 2.3 1.5 3.3-2 .9-3.7-2.2-1.5-3.3zm-19.7 0c2.2-1 3.6 2.2 1.5 3.3-2.1 1-3.7-2.4-1.5-3.3zM46.7 0h-.6c-.5.7-3.4 5.8-3.6 6.5-.7-.1-1.5-.5-2.2-.7-3.5-1.3-8.9-1.5-12.5-.6-.8.2-1.5.4-2.2.6-.7.3-1.4.6-2.1.7-.2-.7-3.1-5.8-3.6-6.5h-.6c-.6.7-.4.9.1 1.7l2.9 5.4c-.4.5-1.5 1-2.1 1.4-.7.5-1.4.9-2 1.5-3.9 3.4-7.2 8.9-6.8 14.5h43.2c.3-3.9-1.7-8.5-3.4-10.8-1-1.3-2.2-2.7-3.3-3.7-1.3-1.1-4-2.7-4.2-2.9l2.8-5.3c.5-.9.8-1.1.2-1.8zm13.5 25.4c-1.4.3-2.3 1-3 1.9-.9 1.1-.9 2.3-.9 4 0 1.8-.1 18.4.1 19.6.6 4.3 6.1 5.5 8.7 2 .9-1.2.9-2.2.8-4 0-1.8.1-18.2-.1-19.6-.2-2.4-2.7-4.5-5.6-3.9zm-56.4 0c-3.3.9-3.7 3.1-3.7 6C0 33.2-.1 49.6.1 51c.6 4.2 6.3 5.5 8.7 1.9.9-1.3.8-2.3.8-4.1 0-1.7.1-18.4-.1-19.6-.4-2.3-2.9-4.6-5.7-3.8zm7.8 32.4c0 2.7 2.3 4.6 5.2 4.7 4.1.1 3.3-1.1 3.3 4.7 0 2.7-.4 7.1.9 8.8.4.5.7.8 1.2 1.2 1.4 1.1 3.3 1.1 4.9.3.4-.2 1-.6 1.3-.9.4-.4 1.5-1.9 1.3-3l.1-11.2h5c.6 0 1.3-.1 1.5.2.1.2 0-.2.1.2l.1 11.3c0 1 .9 2.3 1.3 2.6 3.4 2.9 8.1.7 8.1-4.3 0-3.1-.2-6.9 0-9.9 2.1 0 4.5.2 5.9-.6 1.1-.7 2.6-2.2 2.5-4.1V26.2H11.5l.1 31.6z"/></svg>