<svg id="Слой_1" xmlns="http://www.w3.org/2000/svg" viewBox="0 0 141 57"><style>.st0{fill-rule:evenodd;clip-rule:evenodd;fill:#049595;}</style><path class="st0" d="M21.5 17.8s.1 0 0 0c-.5.1-.3.1-.7-.1l-1.5-.7c-.2-.1-.3-.1-.5-.2l-1.6-.8c-.3.3-1.1 2.1-1.4 2.7L14.7 21c-.5 1-1.4 3.1-1.9 4.2l-2.4 5.7c.3 0 1.2.5 1.5.7l3.8 1.8c.2.1.6.3.7.4l.1-.1c.2-.2 1-1.5 1.1-1.7.4-.6.7-1.3 1.1-2 .1-.2.2-.4.2-.5.3-.6 1.4-3.4 1.5-3.9-.1 0-.8.4-1.4.5-.2 0-.4.1-.6.1h.2l.5-.2c.6-.3 1.1-.8 1.6-1.3l.2-.2c.1-.1.1-.2.2-.3.4-.5.7-.9 1-1.5.1-.1.1-.2.2-.3l-1.2.6c-.3.1-1 .4-1.4.4l.9-.5c1.4-.9 2.1-1.9 2.8-3.4L24 18c.1-.2.3-.9.3-1.1l-.6.3c-.5.2-1.7.6-2.2.6zm-1.9 5.5zM102.1 36.6h1.9v-9.2h11.7v9.1c0 .1 0 .1.1.1h1.8c.1 0 .1 0 .1-.1V16.9h-2v8.7H104v-8.7h-1.9v19.7zM122.1 36.6h13.3v-1.8h-11.3v-7.5h9.6v-1.6h-9.6v-7.1h11.1v-1.7h-13.1v19.7zM59.3 27.6h-6v-9h6c3.3 0 4.9 3.6 3.8 6.3-.2.5-.5 1-.8 1.4-.4.5-.5.6-1.2.9-.5.3-1.1.4-1.8.4zm-7.9 9h1.9v-7.3H60c1.1 0 2.4-.6 3.1-1.2l.6-.5.2-.2c1.6-1.8 2.1-4.6 1-6.9-.2-.5-.6-1.2-1-1.6l-.2-.2c-.1-.1-.2-.3-.3-.4-.4-.3-.7-.6-1.3-.9-.6-.3-1.4-.6-2.3-.6h-8.5v19.8h.1zM73.3 19.2c.1.1.2.5.3.6l3.4 8.4.3.6h-7.9c.1-.3 1.3-3 1.5-3.6.1-.2.2-.4.2-.6l.3-.6c.2-.4.3-.8.5-1.2l1.4-3.6zm-9 17.4h2.1l1.3-3.1.6-1.5.5-1.2c.1-.1.1-.3.2-.3h8.7c.1 0 .2.2.2.3l2.1 5c.1.2.3.7.3.8h2.1c0-.1-.1-.2-.1-.3 0-.1-.1-.2-.1-.3l-7.5-18c-.1-.2-.4-1.2-.6-1.2h-1.5c-.1 0-.2.3-.3.5l-2.6 6.2-.3.6c-.2.4-.4.8-.5 1.2-.2.4-.3.8-.5 1.2-.4.8-.7 1.6-1 2.5-.7 1.5-1.4 3.4-2.1 4.9l-.8 1.8c0 .4-.2.7-.2.9zM40.2 19.2l3.9 9.7h-7.9c0-.2.2-.4.2-.6l.8-1.8c.4-.8.7-1.6 1-2.4.5-1.1 1-2.5 1.5-3.6l.5-1.3zm-9.1 17.4h2.1l2.2-5.4c.1-.2.2-.6.3-.8h8.9c0 .1.1.3.1.4l2.4 5.8h2.1l-4.1-9.9c-.8-2-1.7-4.1-2.6-6.1l-1.3-3.1c0-.1-.2-.5-.2-.6h-1.7l-6.2 14.8c-.6 1.4-1.3 2.9-1.8 4.3 0 .1-.1.4-.2.6zM82.3 26.6c0 2.3.9 4.9 2.4 6.7.5.6.9 1 1.5 1.5 3 2.5 7 2.6 10.3.6.8-.5 1.1-.8 1.7-1.4.4-.4 1.2-1.4 1.2-1.9-.3-.1-.5-.3-.8-.4-.2-.1-.6-.4-.8-.4-.1.6-1.1 1.7-1.7 2.1-1.1.9-2.2 1.3-3.6 1.5h-1.2c-.7 0-1.6-.3-2.1-.5-1.7-.7-3.1-2.1-3.9-3.8-.3-.5-.5-1.2-.7-1.9-.1-.5-.2-1.2-.2-1.7 0-.3-.1-.4 0-.6 0-.4 0-.8.1-1.2.3-1.8.8-3.1 1.9-4.5l.3-.3.7-.6c.6-.5 1.3-.9 2.1-1.1 2-.7 4.2-.4 5.9.6.4.2 1 .7 1.3 1.1.2.2.4.4.5.7.1.2.4.5.4.8.2-.1 1.4-.9 1.6-.9-.1-.3-.6-1.1-.8-1.3-1.5-1.9-3.6-3-6.3-3-2.4 0-4 .6-5.8 1.8-2.5 1.9-4 5.1-4 8.1z"/><path class="st0" d="M22 7.6l-.6 1c-.8 1.3-1.7 2.8-2.4 4.2l-.2.4v.1l-.3.5c-.2.3-.4.7-.6 1.1-.1.3-.5.8-.6 1.1l1.6.7c.2.1.3.1.5.2l1.6.7c.4.2.2.1.6.1h.1l.3-.2c1.1-.6 1.2-.6 2.2-1.7.5-.6 1.7-2.7 2.1-3.4.6-1.1 1.3-2.7 1.7-3.9 0-.2.1-.5.2-.8 0-.2.2-.8.2-.9l-3.1.5-3.3.3zM7.2 26.2l3.9 1.8.8-1.8c.1-.3.3-.6.4-.9.4-1 1-2.1 1.4-3.2.1-.2.2-.3.2-.5.1-.2.1-.3.2-.4.1-.2.1-.3.2-.5l2.2-4.4c.1-.1.1-.3.2-.4l1.2-2.2c-.2 0-.7-.3-.9-.4l-2.5-1.2-.5 1c-.2.3-.3.5-.5.8-.5.8-1.6 2.6-2 3.3l-.9 1.8c-.2.3-.3.6-.5.9-.2.3-.3.6-.5.9l-.9 1.8c-.2.3-.3.6-.4.9l-.4.9c-.1.2-.7 1.6-.7 1.8z"/><path class="st0" d="M22 7.6l3.3-.3 3.1-.5c0-.2.1-.4.1-.5.2-1.9.1-3.9-1.3-5.3-.4-.4-.9-.9-1.6-.9H25c-.8.1-1.4.7-1.9 1.2-.5.4-2.7 2.7-3 3.2.2.5 1.1 2.1 1.5 2.9 0 0 0 .1.1.1l.1.1.6-.8c.1-.1.2-.2.3-.4l1.5-1.9c.1.1 0 0 0 .1L23 6c-.3.6-.7 1.1-1 1.6zm2.2-3.2l.1-.1-.1.1zm.2-.2zM4.8 34l.5 1c.2.4.3.7.5 1 .2.3 1 2 1.1 2.1l1-2.6c.7-1.7 1.3-3.4 2-5.1l.3-.6.8-1.9-3.9-1.8c-.1.1-.7 1.7-.7 1.8-.1.2-.1.3-.2.5-.2 1-1.3 4.8-1.4 5.6zM7.5 38.6l1.7-.2c.8-.1 1.6-.4 2.3-.7 1.3-.6 2.1-1.2 3.2-2 .5-.4.8-.8 1.1-1.1.1-.1.2-.3.4-.4.1-.1.3-.3.3-.5-.1-.1-.6-.3-.7-.4L12 31.6c-.4-.1-1.3-.6-1.5-.7l-1.1 2.9c-.1.3-.2.6-.4 1-.2.1-1.5 3.5-1.5 3.8z"/><path class="st0" d="M15.5 36.5c0-.1 0-.1 0 0zm-6.3 1.9l-1.7.2-.2.6c-.1.2-.2.5-.2.7-.2.4-1.3 3.7-1.4 4 .3.1.7.5.9.8.1.2.3.4.4.5.1.1.2.5.4.5-.2-.7-.1-1-.7-1.9-.1-.1-.1-.2-.2-.2l-.2-.2c.6.1 2 0 2.5-.1.8-.1 1.5-.3 2.1-.6.6-.3 1.1-.7 1.6-1.1l.3-.4c.2-.2.7-1 .8-1.3-.1.1-.4.5-1.1.8-.5.3-1.1.3-1.7.3l.4-.2c.7-.3 1.2-.6 1.8-1.1.1-.1.2-.2.3-.2l.3-.3c.6-.6 1.1-1.2 1.5-2l.4-.8c-.2.1-.7.6-1.2 1-.5.3-.8.5-1.4.7-.4.2-1.2.4-1.7.4-.4.1-1.7.1-2-.1zm4.4 1.6c-.1 0 0 0 0 0zM14.5 12.3l2.5 1.2c.2.1.7.3.9.4l3.9-6.3c-.1 0 0 0-.1-.1 0 0 0-.1-.1-.1-.4-.7-1.3-2.4-1.5-2.9l-.4.4-3 4.1c-.1.1-.1.2-.2.3-.6.9-1.1 1.6-1.7 2.5-.1.1-.2.3-.3.5zM3.9 45l.6.3.3-.9c.1-.4.2-.7.3-1l.3-.9c.2-.5 1.4-4.1 1.6-4.4-.1-.1-.9-1.8-1.1-2.1-.2-.4-.3-.7-.5-1-.1-.3-.4-.9-.5-1-.1.2-.5 3.2-.6 3.6v.6s-.2-.2-.2-.3c-.4-.5-1.8-1.6-2.2-1.7 1 1.5 2.1 3.3 2.4 5.2 0 .4 0 .3-.4.3-1.3 0-1.4-.3-2.3-.5.3.4 1.4 1.1 2 1.3l.2.1C3 42.6 1 43.9.7 44.2l1.3-.4c.6-.2.8-.2 1.4-.3.4-.1.7 0 1.1 0L4 44.6c-.1.1-.1.2-.1.4zM54 44.8h.5c0-.2.2-.6.3-.9.2-.6.7-2.1.8-2.6l.1.2c0 .1 0 .2.1.2l.7 2.1.3.9h.5l1.4-4.2h-.5l-.8 2.7c0 .1-.1.3-.1.4-.1.2-.1.3-.1.5-.1-.1-.8-2.4-.9-2.6l-.3-.9h-.5c-.1.2-.3 1-.4 1.3l-.7 2.2c0-.1-.1-.3-.1-.4 0-.2-.1-.3-.2-.5l-.9-2.7h-.5l1.3 4.3zM132 44.8h.5v-3.3l.1.2c.3.4 2.2 2.9 2.3 3.1h.6v-4.2c-.7 0-.5-.3-.5 1.6v1.7c-.1-.1-.5-.6-.6-.8-.2-.3-.4-.6-.6-.8l-.9-1.2c-.3-.5-.1-.4-.8-.4v4.1h-.1zM107.4 44.3h-1.3v-3.2c.9 0 1.8-.2 2.4.5 1 1 .2 2.7-1.1 2.7zm-1.8.5c.9 0 2 .1 2.7-.2 1.3-.6 1.5-2.6.5-3.4-.9-.8-1.8-.6-3.2-.6v4.2zM99.3 44.8h.5v-3.3c.1.1.5.6.6.8l1.6 2.1c.4.5.2.4.8.4v-4.2h-.5v3.3s-2.4-3.2-2.5-3.3h-.5v4.2zM67.9 43h-.8v-1.9c.7 0 1.6-.1 2 .2.4.3.4 1.1-.1 1.5-.3.2-.7.2-1.1.2zm-1.3-2.3v4.1h.5v-1.3h1.4c0 .1.7 1.1.8 1.3h.6l-.7-1c-.1-.1-.2-.2-.2-.4.7-.3.9-.6.9-1.5 0-1.5-2.1-1.3-3.1-1.3-.2 0-.2 0-.2.1zM86.7 42.7c0-1.3 1.7-2.2 2.8-1.2.7.6.7 1.8 0 2.4-1.1 1-2.8.2-2.8-1.2zm-.5 0c0 .6.3 1.2.6 1.5 1 1 2.9.7 3.5-.5.3-.6.3-1.3 0-1.9-.9-1.8-3.7-1.4-4.1.4v.5zM127.4 41.1c.5 0 .9.2 1.1.4 1.1.9.4 2.8-1.1 2.8-1.3 0-2.1-1.3-1.6-2.3.3-.5.9-.9 1.6-.9zm-.1 3.7c2.1 0 3-2.3 1.7-3.6-1.6-1.6-4.6 0-3.6 2.3.1.2.3.5.4.6.2.2.4.3.6.4.2.2.6.3.9.3zM36.4 42.7c0-.9.8-1.7 1.7-1.7 1.6 0 2.2 1.9 1.2 2.8-1.1 1.1-2.9.3-2.9-1.1zm-.5 0c0 .6.3 1.2.6 1.5 1.4 1.4 3.8.4 3.8-1.4 0-.5 0-.6-.2-1.1-.1-.3-.2-.4-.4-.6-1.4-1.2-3.8-.3-3.8 1.6zM72.5 44.8h2.9v-.5H73v-1.4h2.1v-.5H73v-1.3h2.3v-.5h-2.9v4.2h.1zM62.2 41.2c.1.1.2.3.3.5l.7 1.5h-1.8c0-.2.7-1.6.8-2zm-2.1 3.6h.5c0-.2.4-.8.4-1h2.3c0 .1.2.4.2.5.1.1.2.4.2.5h.6c-.3-.6-1.1-2.4-1.4-3.1l-.5-1.1H62l-.6 1.3c-.1.1-.1.2-.1.3-.1.2-.2.3-.2.5-.2.3-1 1.9-1 2.1zM113.2 41.2c.2.1.7 1.5.8 1.7 0 .1.1.2.1.3h-1.8c0-.1.1-.3.2-.5s.1-.3.2-.5l.5-1zm-2.1 3.6h.6l.4-1h2.3c0 .2.2.5.3.8 0 .1.1.2.1.3h.6c-.4-.7-1.1-2.4-1.4-3.2-.1-.2-.2-.3-.2-.5-.2-.5-.1-.5-.6-.5-.2 0-.4.7-.5 1l-1.6 3.1zM30.8 41.7c0 1.5 2.3.9 2.3 2 0 .8-1.2.7-1.8.5-.3-.1-.4-.3-.6-.4 0 .1-.1.3-.2.4.5.3.8.6 1.6.6s1.5-.4 1.5-1.2c0-1.5-2.3-.9-2.3-2.1 0-.6 1.1-.5 1.5-.4.2.1.4.2.5.2 0-.2.1-.2.2-.5-.7-.4-1.6-.6-2.4-.1-.1.3-.3.6-.3 1zM93 43.2c0 .9.7 1.6 1.7 1.6 1.4 0 1.9-.7 1.9-2.1v-2c0-.2-.2-.1-.5-.1V43c0 1.7-1.7 1.5-2.2 1-.2-.3-.3-.5-.3-1v-1.9c0-.6.1-.5-.5-.5v2.6H93zM81.5 44.8h.5V43h2v-.5h-1.9v-1.4h2.1c.2 0 .1-.2.1-.5h-2.7v4.2h-.1zM42.8 44.8h.5V43h1.9v-.5h-1.9v-1.4h2.1v-.5h-2.7v4.2h.1z"/><path class="st0" d="M1.8 51.2c.2.1.4.2.6.2.1-.3.4-1.2.5-1.6l1.6-4.7-.6-.3c-.2.4-1.9 5.8-2.1 6.4zM43.9 13h2.3c.2 0 .2-.4 0-.4h-1.9v-1.1H46V11h-1.7V9.9h1.8c.2 0 .1-.1.1-.4h-2.4V13h.1zM38.7 13h.4v-1.5h2v1.4c0 .2.1.1.4.1V9.5c-.6 0-.4-.2-.4 1.6h-2V9.5h-.4V13zM47.4 41c0 .1 0 .1.1.1h1.2v3.7h.5v-3.7h1.3c.2 0 .1-.2.1-.5h-3.2v.4zM116.7 41c0 .1 0 .1.1.1h1.2v3.7h.5v-3.7h1.3c.2 0 .1-.2.1-.5h-3.2v.4zM0 57c.9-.1 1.1-1.7 1.4-2.5l.9-3c-.2-.1-.3-.2-.6-.2-.4 1.4-.9 3-1.3 4.3L0 57zM34.1 9.6c0 .4-.1.3 1.1.3V13h.4V9.9h1c.2 0 .1-.1.1-.4h-2.6c.1 0 0 0 0 .1zM122.2 44.8h.5v-4.1c0-.1 0-.1-.1-.1h-.4v4.2zM139.6 19.2h-.2c-.6 0-1.2-.6-1.2-1.2v-.3c0-.6.6-1.2 1.2-1.2h.2c.7 0 1.3.6 1.3 1.3-.1.7-.7 1.4-1.3 1.4zm1.4-1.5v.3c0 .4-.2.8-.5 1-1.2 1-2.6-.1-2.6-1.1v-.2c0-1.2 1.6-2 2.6-1 .3.3.5.6.5 1z"/><path class="st0" d="M139.4 17.8h-.2v-.6h.5c.2 0 .2.3.2.4-.1.2-.3.2-.5.2zm-.6-.7v1.5c0 .2.4.2.4 0v-.4h.4c0 .1.1.2.2.3.1.1.1.2.2.3h.4c-.1-.3-.3-.4-.4-.6.5-.1.5-.8.1-1-.2-.1-.7-.1-1.1-.1-.1-.2-.2-.1-.2 0z"/></svg>