<svg id="Слой_1" xmlns="http://www.w3.org/2000/svg" viewBox="0 0 178 52"><style>.st0{fill-rule:evenodd;clip-rule:evenodd;fill:#049595;} .st1{fill:#049595;}</style><path class="st0" d="M95.2 29.7c2.2-.7 3.6 1.2 3.8 3 .6 4.3-2.6 6.1-4.9 4.4-.6-.5-1.1-1.2-1.1-2.4 0-2.6.1-4.3 2.2-5zm-5.4-2.3c.2 3.3 0 16 .2 17.4h3.1v-6.3c.2.1.9.8 1.4 1.1 3 1.6 7.8-.5 7.8-5.9 0-3-1.1-5.2-3.2-6.1-1.1-.5-2.6-.5-3.8-.1-1.6.6-2.2 1.7-2.5 1.8l-.2-1.8-2.8-.1zm-9.6 2.3c4.3-1.4 5.3 6.5 1.8 7.8-2.2.8-3.9-.9-3.9-2.9 0-2.6 0-4.1 2.1-4.9zm-5.3-2.2c.4 1.8-.1 13.8.1 17.3h3.1v-6.3c.4.2.9 1.3 2.8 1.5 6.9 1 8.6-10 3.2-12.4-1.1-.5-2.6-.6-3.8-.2-1.8.6-2 1.6-2.5 1.9l-.1-1.9-2.8.1zm-12 5.1c.3-1.2.8-2.4 1.1-3.6.2-.8.8-3.3 1.1-3.7.5 2.3 2 6.4 2.2 7.4l-4.4-.1zm-.4 2.3h5.4c.3.5 1.4 4.1 1.6 4.8h3.4l-5.6-17.1h-4l-5.5 17.1H61l1.5-4.8zM120 23.2c-9.7-3.3-12.3 4.8-8.4 7.6 2.9 2 6.1 1.9 6 4.6-.1 1.5-1.4 2.2-3.1 2.2-2.3 0-3.1-.7-4.2-1l-.7 2.5c2.5 1.1 5.9 1.6 8.5.2 1.1-.6 2-1.5 2.4-2.9.9-3.2-1-5.2-3.8-6.3-1.1-.5-2.9-1.1-3.4-1.8-.4-.6-.5-1.6-.1-2.2 1.2-2 4.9-.7 6-.3l.8-2.6zm14.6 11.3c-.7-6.1 5.3-6.9 6-1.9.9 6.1-5.3 7-6 1.9zm-3.2-.1c.3 3.5 3.1 6.1 7 5.6 3.6-.4 5.8-3.1 5.5-7.1-.3-3.6-3.1-6.2-7.1-5.7-3.4.4-5.7 3.2-5.4 7.2zm26.3-2.1c.2-1.6 1.1-3 2.7-3 1.9-.1 2.7 1.2 2.7 3h-5.4zm8.3 2.2c.3-1.6 0-3.3-.6-4.6-2.1-4.2-8.1-3.5-10 .7-1.4 3-.5 6.7 1.5 8.1 3 2.2 5.8 1.2 8.6.6l-.4-2.1c-1.6.3-3.1.9-4.9.4-1.4-.4-2.4-1.4-2.4-3l8.2-.1zm-43.9-4.8l1.8.1c0 1.9-.2 6.4.3 8 .7 2.4 3 2.5 5.7 2l-.1-2.4c-2.2.3-2.8-.1-2.8-2.3v-5.3h3v-2.3h-3v-3.2l-3.1.8v2.3l-1.8.1v2.2zm24.5 10.1h3.1c0-2.2-.1-4.6 0-6.8s1.5-3.1 3.8-2.9v-2.9c-1.7-.1-2.6.3-3.6 1.5-.2.3-.4.7-.6 1l-.1-2.3h-2.6v12.4zm-44.9-28c2.8-1 3.5 4.2 1.1 4.9-2.9.8-3.3-4.1-1.1-4.9zm-1.5 4.7c.5.4.6.8 1.4 1 .7.2 1.4.1 2-.2 1.1-.5 1.7-1.5 1.8-3.1.1-3.4-3-4.2-4.5-3l-.6.5s-.1 0-.1.1l-.1-4.1H99v9.7h1l.2-.9zm-38.3-7l1.4 4.3h-2.8l1.4-4.3zm-1.7 5.1h3.3c.2.6.4 1.2.6 1.9.4 1.2.1 1 1.6 1l-3.2-9.2h-1.4L58 17.5h1.1l1.1-2.9zm91.8 2.9c.2-2.2-.8-5.7 1.7-5.8 2.4-.1 1.5 3.9 1.7 5.8h1.1c.1-1.3.2-4.8-.4-5.7-.4-.6-1.1-1.1-2.1-1-1 .1-1.4.6-1.9 1.1V7.8h-1.2v9.7h1.1zm-25.5-5.8c2.8-.6 3.1 4.4.9 5-1.5.4-2.4-.8-2.5-2.1-.2-1.5.4-2.6 1.6-2.9zm3.5 3.4c1.1-4.8-5.3-5.9-6.3-1.8-1 4.8 5.3 5.9 6.3 1.8zm-17-1.5c.3-2.5 3.4-2.8 3.6 0H113zm4 2.9c-1.2.6-3.9.7-4-2h4.7c.2-1.9-.5-3.2-2-3.5-3.7-.8-4.9 4.3-2.6 6.1 1 .8 3.1 1 4.3.2l-.4-.8zm-22-2.3c0 .9.1 1.8-.5 2.3-.5.4-1.6.6-2.1 0-.6-.8-.5-2.4 2.6-2.3zm-3.3-2.1c.7-.2 1.3-.6 2.3-.4.7.2 1.1.8 1 1.6-6.2 0-4.1 5.6-.8 4.1.6-.3.5-.4 1-.7l.1.8h1c0-1.3.1-4.7-.4-5.6-.8-1.6-3.5-1.2-4.3-.5l.1.7zm-12.8 2c0 1 .2 1.7-.5 2.2-1.6 1.4-3.3-.7-1.8-1.8.6-.4 1.5-.3 2.3-.4zm-3.3-2c1-.3 3.3-1.2 3.2 1.3-1.6.1-4.2.3-3.9 2.7.2 2 3 2 3.9.7l.2.5c0 .2 0 .1.1.3h.9c.1-1 0-4.8-.4-5.6-.8-1.5-2.6-1.3-4.3-.6l.3.7zm84.5 1.5c.2-1.1.7-1.9 1.8-2 1.2 0 1.7.8 1.7 2h-3.5zm4.1 2.8c-1.2.5-4 .8-4.1-2l4.7-.1c.2-4.5-4.4-4.5-5.5-1.7-.6 1.5-.2 3.5.8 4.2 1 .7 3.2 1.1 4.3.2l-.2-.6zm-27.1-3.1c.2.1.1 3.6.1 4.2h1v-4.3c.1-1.2-.7-2.1-1.7-2.4-.6-.1-1.2-.1-1.7.2-.7.3-.7.6-1.1.9l-.1-1h-1l.1 6.6h1.1c.1-1.3-.3-3.9.3-4.9.8-1.3 2.8-1.2 3 .7zm-68.8-2.4H67l2.5 6.6h1.1l2.6-6.6H72l-1.9 5.3-1.8-5.3zm76.3.9l1 .1c0 1.1-.1 3.4.1 4.4.2 1.1 1.6 1.9 2.7 1.2v-.8c-2.2.1-1.5-.6-1.6-4.8h1.7V11h-1.8V9.5c-.2 0-.5.1-.7.2-.5.2-.4-.1-.4 1.4h-1v.7zm-36.5 5.7h1.2V7.8h-1.2v9.7zm-20.8 0h1.1V7.8h-1.2l.1 9.7zm-4.3 0c1.1 0 1.2.3 1.2-.7v-5.9H83v6.6zm.2-9c-.2.1-.2 0-.3.4-.1.6.6 1.1 1.1.8.8-.5.1-1.9-.8-1.2zM43.5 34.1c-1.3-.9-2-.7-3.4-2.5-2-2.6-2.3-6.2-.6-9.1.8-1.3 1.9-2.1 2.8-3-1.8-2.3-4.7-4.6-9.4-3.4-1.9.5-3.3 1.6-5.7 1.1-2-.4-3.3-1.3-5.6-1.4-4.1-.2-7.1 2.9-8.5 5.3-2.6 4.6-1 11.8 1.6 16.4C16.1 40 18.6 44 22 44c1.8 0 3.4-1.3 5.4-1.5 2.8-.3 3.4.5 5.5 1.2 3.8 1.3 6.3-2.2 8.1-5 .9-1.3 2.1-3.2 2.5-4.6zm-16.3-18c4.3.2 8.3-4.4 7.6-8.9-4.2.1-8.2 4.4-7.6 8.9z"/><path class="st1" d="M6.5 0h164.9c1.8 0 3.4.7 4.6 1.9 1.2 1.2 1.9 2.8 1.9 4.6v39c0 1.8-.7 3.4-1.9 4.6-1.2 1.2-2.8 1.9-4.6 1.9H6.5c-1.8 0-3.4-.7-4.6-1.9C.7 48.9 0 47.3 0 45.5v-39c0-1.8.7-3.4 1.9-4.6C3.1.7 4.7 0 6.5 0zm165 .9H6.5c-1.5 0-2.9.6-4 1.6-1 1-1.6 2.4-1.6 3.9v39c0 1.5.6 2.9 1.6 3.9s2.4 1.6 4 1.6h164.9c1.5 0 2.9-.6 4-1.6 1-1 1.6-2.4 1.6-3.9v-39c0-1.5-.6-2.9-1.6-3.9S173 .9 171.5.9z"/></svg>