<svg id="Слой_1" xmlns="http://www.w3.org/2000/svg" viewBox="0 0 59 69"><style>.st0{fill-rule:evenodd;clip-rule:evenodd;fill:#049595;}</style><path class="st0" d="M59 50.5c-2.4-1.7-3.7-1.4-6.3-4.7-3.8-4.9-4.4-11.6-1.2-17 1.5-2.5 3.6-3.9 5.3-5.7-3.4-4.3-8.8-8.5-17.6-6.3-3.6.9-6.1 3-10.6 2.1-3.8-.7-6.1-2.5-10.4-2.7C10.5 15.8 5 21.5 2.5 26c-4.8 8.6-1.9 22.1 3 30.7C8.1 61.5 12.8 68.9 19 69c3.4.1 6.3-2.5 10-2.9 5.3-.6 6.3.9 10.3 2.2 7 2.4 11.8-4.1 15.2-9.4 1.4-2.1 3.7-5.7 4.5-8.4zM28.5 16.8c8 .3 15.4-8.3 14.1-16.8-7.6.3-15.2 8.4-14.1 16.8z"/></svg>