<svg id="Слой_1" xmlns="http://www.w3.org/2000/svg" viewBox="0 0 128 58.5"><style>.st0{fill-rule:evenodd;clip-rule:evenodd;fill:#049595;}</style><path class="st0" d="M52 2.5C58.4-.3 65.7-.8 72.4 1.2 80 3.4 86.5 8.9 90.2 15.9c-1.3.2-2.6.1-3.9.1H65.9c0-2.2-1-4.5-2.8-6-2.5-2-5.9-2.6-9-2.5-5.6.4-11 2.9-14.7 7-.5.5-.8 1.3-1.5 1.5 2.8-6 8-10.8 14.1-13.5zM0 22.1c3.4-.1 6.9 0 10.3 0 2.4.1 5.1.2 6.8 2.1 1.4 1.6 1.4 3.9 1.3 5.9-.1 1.7-.4 3.7-1.8 4.8-1.5 1.3-3.6 1.5-5.5 1.6H-.1c.1-4.8.1-9.6.1-14.4zm2.9 2v10.4H10c1.3 0 2.7-.1 3.9-.9 1.1-.7 1.5-2 1.5-3.3.1-1.6.1-3.3-.7-4.6-.9-1.3-2.6-1.6-4-1.7-2.6 0-5.2 0-7.8.1zM21.3 22c1-.1 2 0 3 0v10.2c0 .6.2 1.1.4 1.6 1.5.9 3.3.7 5 .8 1.8 0 3.6.1 5.3-.5.8-.3 1-1.2.9-1.9V22h3v9.9c0 1-.1 2.2-.8 3-.9 1.2-2.5 1.4-3.9 1.6-2.8.2-5.6.2-8.4 0-1.3-.2-2.8-.5-3.6-1.5-.7-.9-.8-2-.8-3-.1-3.5-.2-6.7-.1-10zm21.2 0c1.4-.1 2.9-.1 4.3 0 3.9 4.1 7.8 8.1 11.7 12.1V21.9h3v14.5h-4.2c-3.9-4-7.9-8-11.7-12-.1 4 0 8-.1 12.1h-3c0-4.9.1-9.7 0-14.5zm22.4 0h14.5v2H67.9c0 1.4-.1 2.7 0 4.1 3.6-.1 7.3 0 10.9 0V30h-11v4.4h11.5v2H64.9c0-4.8.1-9.6 0-14.4zm23.7.1c1-.1 2-.1 3-.1v6h11.7v-6.1h3c-.1 4.8 0 9.6 0 14.3h-2.9v-6.3c-3.9-.1-7.8 0-11.7 0v6.3h-3c-.1-4.6-.1-9.3-.1-14.1zm20.9-.1H120c2.2.1 4.7.3 6.4 1.9 1.4 1.5 1.6 3.6 1.6 5.5s-.3 4-1.7 5.3c-1.5 1.4-3.7 1.6-5.7 1.7h-11.1c-.1-4.7 0-9.6 0-14.4zm3 2.1v10.4h7.5c1.3-.1 2.8-.3 3.8-1.2.9-1 1.1-2.5 1.2-3.8 0-1.4-.1-2.9-1-4-1-1.1-2.6-1.4-4-1.4-2.5-.1-5-.1-7.5 0zM37.8 42.5h24.3c.1 2.1.8 4.2 2.4 5.6 2.9 2.8 7.4 3.2 11.2 2.7 5.3-.9 10.4-3.5 13.7-7.8.2-.3.4-.5.8-.6-2 4.3-5.4 8-9.3 10.7-6 4.3-13.6 6.1-20.9 5.1C50.6 57 42 51 37.8 42.5z"/></svg>