<svg id="Слой_1" xmlns="http://www.w3.org/2000/svg" viewBox="0 0 117 115"><style>.st0{fill:#FFFFFF;}</style><path class="st0" d="M111.2 15.9v66.9c0 .4-.3.6-.6.6h-.2c-.1 0-.2 0-.4-.1H7.1c-.2 0-.3 0-.5.1-.3.1-.7-.2-.7-.5v-67c0-.4.3-.6.6-.6h104.1c.3 0 .6.3.6.6zm-1.3 66.2V16.6H7.1v65.6h102.5c.1-.1.2-.1.3-.1zm.7-71.3H6.4c-1.4 0-2.7.6-3.6 1.5-.9.9-1.5 2.2-1.5 3.6v75.4c0 1.4.6 2.7 1.5 3.6.9.9 2.2 1.5 3.6 1.5h104.1c1.4 0 2.7-.6 3.6-1.5.9-.9 1.5-2.2 1.5-3.6V15.9c0-1.4-.6-2.7-1.5-3.6-.8-.9-2.1-1.5-3.5-1.5zM6.4 9.5h104.1c1.8 0 3.4.7 4.5 1.9 1.2 1.2 1.9 2.8 1.9 4.5v75.4c0 1.8-.7 3.4-1.9 4.6-1.2 1.2-2.8 1.9-4.5 1.9H6.4c-1.8 0-3.4-.7-4.5-1.9C.7 94.7 0 93.1 0 91.4V15.9c0-1.8.7-3.4 1.9-4.5 1.2-1.2 2.8-1.9 4.5-1.9zM82.3 102.5c0 .8-.3 1.6-.9 2.1-.5.5-1.3.9-2.1.9H37.7c-.8 0-1.6-.3-2.1-.9-.5-.5-.9-1.3-.9-2.1s.3-1.6.9-2.1c.5-.5 1.3-.9 2.1-.9h41.7c.8 0 1.5.3 2.1.9.4.6.8 1.3.8 2.1zm-1.8 1.2c.3-.3.5-.7.5-1.2s-.2-.9-.5-1.2c-.3-.3-.7-.5-1.2-.5H37.7c-.5 0-.9.2-1.2.5-.3.3-.5.7-.5 1.2s.2.9.5 1.2c.3.3.7.5 1.2.5h41.7c.4 0 .8-.2 1.1-.5z"/><path class="st0" d="M29.4 64.8V33.4h6.3v12.3H48V33.4h6.3v31.3H48V51.1H35.7v13.7h-6.3zm33-31.4h11.5c2.6 0 4.6.2 5.9.6 1.8.5 3.4 1.5 4.7 2.9 1.3 1.4 2.3 3.1 3 5.1.7 2 1 4.5 1 7.4 0 2.6-.3 4.8-1 6.7-.8 2.3-1.9 4.1-3.3 5.5-1.1 1.1-2.6 1.9-4.4 2.5-1.4.4-3.2.7-5.6.7H62.4V33.4zm6.4 5.3v20.7h4.7c1.8 0 3-.1 3.8-.3 1-.3 1.9-.7 2.5-1.3.7-.6 1.2-1.6 1.6-3 .4-1.4.6-3.3.6-5.7 0-2.4-.2-4.3-.6-5.6-.4-1.3-1-2.3-1.8-3-.8-.7-1.7-1.2-2.9-1.5-.9-.2-2.6-.3-5.2-.3h-2.7z"/></svg>