<svg id="Слой_1" xmlns="http://www.w3.org/2000/svg" viewBox="0 0 122 46"><style>.st0{fill-rule:evenodd;clip-rule:evenodd;fill:#049595;} .st1{fill:#049595;}</style><path class="st0" d="M60.1 6.2c.5 0 .8 0 1 .5l8.1 24.6c.1.3.2.4.4.4.1 0 .3-.2.4-.5l7.9-24.1c.2-.5.3-1 .9-1h5.5c.5 0 .8.3.8.8 0 1.1-1.4.5-2.7 1-.8.3-.9.8-.9 2.4v1.1l.7 23.6c.1 2-.1 2.6 1.1 3.1 1.4.6 2.6-.1 2.6 1.2 0 .4-.4.8-1.1.8-.8 0-2.2-.3-4.4-.3s-3.5.3-4.3.3c-.7 0-1.1-.3-1.1-.9 0-1.2 1.5-.4 2.9-1.2.7-.4.8-1.1.8-2.9v-1.3l-.5-21.4c0-.5-.1-.8-.1-.8-.1 0-.3.2-.3.4l-8.9 26.6c-.1.3-.2.4-.4.4s-.3-.1-.4-.4L59.3 12c-.1-.1-.2-.2-.4-.2-.1 0-.2.2-.2.8L58 30c-.1 1.2-.1 2.5-.1 3.7 0 3.3.2 5 2 5 .3 0 .7-.1 1-.1.4 0 .7.3.7.9 0 .5-.5.8-1.3.8-1 0-2-.2-3.1-.2-1.3 0-2.3.2-3.2.2-.8 0-1.3-.3-1.3-.9 0-.5.3-.8.9-.8.3 0 .4.1.7.1 1.8 0 2-2.3 2.3-8.7l1-19.3v-.6c0-1.2-.3-1.8-1.2-2.1-1.3-.5-2.4.1-2.4-1 0-.5.3-.8.8-.8h5.3zM101.6 35.1c0 2.2.5 3.3 1.5 3.3.8 0 1.5-1.2 2-1.2.2 0 .4.2.4.4 0 1.1-2.8 3.3-4.3 3.3-1.4 0-2.1-1.1-2.7-3.6h-.2c-2.7 2.3-4.7 3.8-7 3.8-2.6 0-4.1-1.7-4.1-4.3 0-4.1 3.9-6.7 11.3-11v-4.7c0-3.3-.5-4.6-2.7-4.6-1.9 0-3.8 1.5-4.4 3.3-.8 2.2-1.3 4-3.3 4-.5 0-.9-.4-.9-.9 0-2.6 4-7.6 9.8-7.6 4.6 0 4.8 2.4 4.8 6.2v13.6h-.2zm-3.5-7.5c-.1 0-.3.1-.5.2l-1.6.9c-3.7 2.1-5.6 4.3-5.6 6.7 0 2 1.1 3.3 2.9 3.3 2.2 0 5.2-2.1 5.2-5.7v-5c0-.1-.2-.4-.4-.4zM121.6 18.8c0 2.2-.3 3.3-.8 3.3-.7 0-.8-.9-1.6-2.4-1.2-2.2-2.4-3.2-4.2-3.2-3.6 0-6.8 3.9-6.8 11.5 0 7.3 3.2 11.4 7.7 11.4 3.7 0 5.3-2.8 5.7-2.8.2 0 .4.2.4.3 0 1-2.8 4.3-7.1 4.3-5.7 0-10-5.2-10-12.9 0-7.8 5.2-12.8 10.8-12.8 3.6 0 5.9 1.2 5.9 3.3z"/><path class="st1" d="M.4 6.3h24.1v-.8H.4v.8z"/><path class="st1" d="M25.7 40.6H0V5.9h.8v33.9h24.9v.8z"/><path class="st1" d="M25.2 40.6h17.7v-.8H25.2v.8z"/><path class="st1" d="M24 5.5h19.3v34.7h-.8V6.3H24v-.8z"/><path class="st0" d="M28.9 16.1h2.2V11h-2.2v5.1zM10.8 16.1H13V11h-2.2v5.1zM23.6 31.9c-7 .3-11.7-.9-15.8-2.9l-1.1 1.6c4.1 2.5 10.7 3.6 17 3.3l-.1-2z"/><path class="st0" d="M26.6 46c-3.4-6.5-3.9-14.1-2.5-19.6h-7.5C16.8 15 22.7 5.4 27.3 0l1.5 1.2C25 5.9 19.5 13.9 18.6 24.4h7.9c-.6 2.3-1.1 4.7-1.2 7.3 4.4-.5 6.8-1.1 10.1-2.8l1.1 1.6c-2.9 1.7-6.9 2.7-11.2 3.1.1 3.8 1 7.6 3 11.5l-1.7.9z"/></svg>