<svg id="Слой_1" xmlns="http://www.w3.org/2000/svg" viewBox="0 0 198 69"><style>.st0{fill:#049595;} .st1{fill-rule:evenodd;clip-rule:evenodd;fill:#049595;}</style><path class="st0" d="M20.6 39.1v-23h4.7v9.1h9.1v-9.1H39v23h-4.7V29h-9.1v10.1h-4.6zm24.3-23h8.5c1.9 0 3.4.1 4.4.4 1.3.4 2.5 1.1 3.5 2.1s1.7 2.3 2.2 3.7c.5 1.5.8 3.3.8 5.4 0 1.9-.2 3.5-.7 4.9-.6 1.7-1.4 3-2.5 4.1-.8.8-1.9 1.4-3.3 1.8-1 .3-2.4.5-4.1.5H45V16.1h-.1zm4.7 3.8v15.2H53c1.3 0 2.2-.1 2.8-.2.8-.2 1.4-.5 1.9-1s.9-1.2 1.2-2.2c.3-1 .5-2.4.5-4.2 0-1.8-.2-3.1-.5-4.1-.3-1-.8-1.7-1.3-2.2-.6-.5-1.3-.9-2.1-1.1-.6-.1-1.9-.2-3.8-.2h-2.1z"/><path class="st1" d="M95.4 33.1c.1.5.4.7.8.9 1-.7 2.9-3 4-4.1 1.3-1.3 3-2.8 5.5-2.8 4.6 0 4.2 7 10.2 7 4 0 5.3-5.3 7.8-6.6 3.1-1.6 5.1 1 6.4 3 1.8 2.7 3 3.6 5.8 3.6 4.4 0 5.1-7 9.4-7 2.4 0 3.6 2.1 4.6 3.5 1.9 2.6 2.7 3.5 5.9 3.5 4.1 0 5.2-7 9.2-7 4.5 0 4.9 7 9.7 7 6 0 5.6-7 10.2-7 2.4 0 4.2 1.4 5.4 2.7.4.4.7.6 1 1 .8.8 1.9 2.3 3.1 3.2.4-.3.6-.4.8-.9-1.5-.4-5-7-9.7-7-1.5 0-2.6 0-3.9 1.2-2.3 2.1-3.3 5.8-6.5 5.8-4.3 0-5-7-9.4-7-2.3 0-3.3.4-4.9 2.3-1.5 1.8-2.9 4.7-5.4 4.7-4.5 0-4.9-7-9.7-7-2.8 0-4 1.3-5.5 3.4-1.1 1.6-2.5 3.6-4.7 3.6-3.3 0-4.2-3.7-6.5-5.7-1.6-1.4-2-1.4-4-1.4-1.1 0-2.2.7-2.8 1.2-1.1.9-2.6 3.5-3.6 4.5-.7.8-1.8 1.3-2.9 1.3-4.2 0-5-7-9.4-7-2.3 0-3.5.3-5.4 1.8-.4.3-.8.6-1.2 1-1.4 1.2-3.4 4-4.3 4.3z"/><path class="st0" d="M194.8 16.1H95.4v1.1h99.4l-3.5 2.2.4.5.4.5 5.2-3.3.8-.5-.8-.5-5.2-3.3-.7 1.1 3.4 2.2zM194.8 42.5H95.4v1.1h99.4l-3.5 2.2.4.5.4.5 5.2-3.3.7-.5-.8-.5-5.2-3.3-.7 1.1 3.5 2.2z"/><path class="st1" d="M80.4 4.2V53c-.2 0-.5-.1-.7-.1H5c-.3 0-.5 0-.8.1V4.2h76.2zm0-4.2H4.2C1.9 0 0 1.9 0 4.2v55c0 2.3 1.9 4.2 4.2 4.2h76.2c2.3 0 4.2-1.9 4.2-4.2v-55c.1-2.3-1.8-4.2-4.2-4.2zM59.3 67.3c0 .9-.8 1.7-1.7 1.7H27.1c-.9 0-1.7-.8-1.7-1.7 0-.9.8-1.7 1.7-1.7h30.5c.9 0 1.7.8 1.7 1.7z"/></svg>