<svg id="Слой_1" xmlns="http://www.w3.org/2000/svg" viewBox="0 0 109.9 62"><style>.st0{fill-rule:evenodd;clip-rule:evenodd;fill:#049595;}</style><path class="st0" d="M98.5 62h-80c-29-3.3-20.2-40.2 1.5-36.9C21-2.5 54.6-8.7 65.2 13.2 76 3.7 96.5 10.9 96.2 31c16.4 1.2 19.3 27.7 2.3 31zM40.2 36.7c0 1-.2 1.8-.5 2.6s-.8 1.4-1.4 2c-.6.5-1.3 1-2.2 1.3-.9.3-1.9.5-3.1.5h-2.2v7c0 .1 0 .2-.1.2 0 .1-.1.1-.2.1s-.2.1-.4.1h-1.2c-.2 0-.3-.1-.4-.1-.1 0-.2-.1-.2-.1 0-.1-.1-.1-.1-.2v-18c0-.4.1-.7.3-.9.2-.2.4-.3.7-.3h4.1c.4 0 .8 0 1.2.1.4 0 .8.1 1.4.2.5.1 1.1.3 1.6.6s1 .7 1.4 1.2c.4.5.7 1 .9 1.6.3.7.4 1.4.4 2.1zm-2.7.2c0-.8-.1-1.5-.4-2-.3-.5-.7-.9-1.1-1.2-.4-.3-.9-.4-1.3-.5-.5-.1-.9-.1-1.4-.1h-2.4v7.8h2.3c.8 0 1.4-.1 1.9-.3.5-.2.9-.5 1.3-.8.3-.4.6-.8.8-1.3.2-.5.3-1 .3-1.6zm15.8 13.2c0 .1 0 .2-.1.3-.1.1-.2.1-.3.1h-1.2c-.2 0-.3-.1-.3-.1-.1-.1-.1-.1-.1-.3v-1.4c-.6.6-1.2 1.1-2 1.5-.7.3-1.5.5-2.3.5-.7 0-1.4-.1-1.9-.3-.6-.2-1.1-.5-1.5-.8-.4-.3-.7-.8-.9-1.3-.2-.5-.3-1.1-.3-1.7 0-.8.2-1.4.5-2 .3-.6.7-1 1.3-1.4.6-.4 1.3-.7 2.1-.8.8-.2 1.8-.3 2.8-.3H51V41c0-.5-.1-1-.2-1.4-.1-.4-.3-.7-.5-1-.2-.3-.6-.5-.9-.6-.4-.1-.9-.2-1.4-.2-.6 0-1.2.1-1.6.2-.5.1-.9.3-1.3.5s-.7.3-.9.5c-.2.1-.4.2-.5.2-.1 0-.2 0-.2-.1-.1 0-.1-.1-.2-.2 0-.1-.1-.2-.1-.3v-.4c0-.2 0-.4.1-.6 0-.1.1-.3.3-.4.1-.1.4-.3.7-.5.3-.2.7-.3 1.1-.5.4-.1.9-.3 1.4-.4.5-.1 1-.1 1.5-.1 1 0 1.8.1 2.5.3.7.2 1.2.5 1.6 1 .4.4.7 1 .9 1.6.2.6.3 1.4.3 2.2v9.3h-.3zm-2.5-6.2h-2.1c-.7 0-1.3.1-1.8.2s-.9.3-1.2.5c-.3.2-.6.5-.7.8-.2.3-.2.7-.2 1.1 0 .7.2 1.3.7 1.7.4.4 1.1.6 1.9.6.6 0 1.2-.2 1.8-.5.6-.3 1.1-.8 1.7-1.5v-2.9h-.1zm17.1 6.2c0 .1 0 .2-.1.3-.1.1-.2.1-.3.1h-1.2c-.2 0-.3-.1-.3-.1-.1-.1-.1-.1-.1-.3v-1.4c-.6.6-1.2 1.1-2 1.5-.7.3-1.5.5-2.3.5-.7 0-1.4-.1-1.9-.3-.6-.2-1.1-.5-1.5-.8-.4-.3-.7-.8-.9-1.3-.2-.5-.3-1.1-.3-1.7 0-.8.2-1.4.5-2 .3-.6.7-1 1.3-1.4.6-.4 1.3-.7 2.1-.8.8-.2 1.8-.3 2.8-.3h1.9V41c0-.5-.1-1-.2-1.4-.1-.4-.3-.7-.5-1-.2-.3-.6-.5-.9-.6-.4-.1-.9-.2-1.4-.2-.6 0-1.2.1-1.6.2-.5.1-.9.3-1.3.5s-.7.3-.9.5c-.2.1-.4.2-.5.2-.1 0-.2 0-.2-.1-.1 0-.1-.1-.2-.2 0-.1-.1-.2-.1-.3v-.4c0-.2 0-.4.1-.6 0-.1.1-.3.3-.4.1-.1.4-.3.7-.5.3-.2.7-.3 1.1-.5.4-.1.9-.3 1.4-.4.5-.1 1-.1 1.5-.1 1 0 1.8.1 2.5.3.7.2 1.2.5 1.6 1 .4.4.7 1 .9 1.6.2.6.3 1.4.3 2.2v9.3h-.3zm-2.4-6.2h-2.1c-.7 0-1.3.1-1.8.2s-.9.3-1.2.5c-.3.2-.6.5-.7.8-.2.3-.2.7-.2 1.1 0 .7.2 1.3.7 1.7.4.4 1.1.6 1.9.6.6 0 1.2-.2 1.8-.5.6-.3 1.1-.8 1.7-1.5v-2.9h-.1zM83.1 45c0 .9-.2 1.7-.5 2.4s-.8 1.3-1.4 1.8c-.6.5-1.3.9-2.1 1.1-.8.3-1.7.4-2.6.4-.6 0-1.2-.1-1.8-.2-.6-.1-1-.3-1.5-.4-.4-.2-.8-.3-1.1-.5-.3-.2-.5-.3-.6-.4-.1-.1-.2-.3-.3-.5-.1-.2-.1-.4-.1-.7v-.5c0-.1.1-.3.1-.3 0-.1.1-.2.2-.2s.1-.1.2-.1.3.1.6.3c.2.2.6.4 1 .6.4.2.9.4 1.4.6.6.2 1.2.3 1.9.3.6 0 1.1-.1 1.5-.2.5-.1.9-.4 1.2-.6.3-.3.6-.6.8-1 .2-.4.3-.9.3-1.4 0-.5-.1-1-.4-1.4-.2-.4-.6-.7-1-1-.4-.3-.9-.6-1.4-.8-.5-.2-1.1-.5-1.6-.7-.5-.3-1.1-.5-1.6-.8-.5-.3-1-.7-1.4-1.1-.4-.4-.7-.9-1-1.5-.3-.6-.4-1.2-.4-2s.1-1.5.4-2.2c.3-.6.7-1.2 1.2-1.6.5-.4 1.1-.8 1.9-1 .7-.2 1.5-.3 2.3-.3.4 0 .9 0 1.3.1l1.2.3c.4.1.7.3 1 .4.3.2.5.3.6.4l.2.2c0 .1.1.1.1.2V34c0 .1 0 .3-.1.4 0 .1-.1.2-.1.2-.1 0-.1.1-.2.1s-.3-.1-.5-.2-.5-.3-.9-.5c-.3-.2-.7-.3-1.2-.5-.5-.1-1-.2-1.6-.2-.5 0-1 .1-1.4.2-.4.1-.7.3-1 .6-.3.2-.4.5-.6.9-.1.3-.2.7-.2 1 0 .5.1 1 .4 1.4.2.4.6.7 1 1 .4.3.9.6 1.4.8.5.3 1.1.5 1.6.8.5.3 1.1.5 1.6.8.5.3 1 .7 1.4 1.1.4.4.7.9 1 1.5.7.1.8.8.8 1.6z"/></svg>