<svg id="Слой_1" xmlns="http://www.w3.org/2000/svg" viewBox="0 0 55 76"><style>.st0{fill-rule:evenodd;clip-rule:evenodd;fill:#049595;}</style><path class="st0" d="M25.4 72.4c-1 0-1.6-.1-2.4-.1h-1.3c-.6 0-.5-.1-1.2-.1V54.5c1.5 0 2.4-.3 4-.3 4.6 0 9.4.3 11.2 5.3 1.2 3.3.3 8.5-2.7 10.8-1.8 1.4-5.1 2.1-7.6 2.1zm-13.9-6.6H8.9v6.5H5V54.5c1.4 0 2.6-.3 4.1-.3 2.3 0 4.9-.1 6.6 1.4 3.1 2.5 2.7 7.9-1.8 9.7-.4.1-1.8.5-2.4.5zM43 61.7h6.5V65H43v7.3h-3.8v-18H50v3.1h-7v4.3zM3.1 3.1h34.2v14.2c0 1 .2 2.4 1.5 2.4H52v30.7H3.1V3.1zM0 2.8v70.4C0 74.6 1.3 76 2.7 76h49.7c1.4 0 2.7-1.4 2.7-2.8V18.1c0-1.1-2.9-3.8-3.7-4.8-.6-.8-1.4-1.5-2-2.3-.6-.8-1.4-1.5-2-2.3l-6-6.8C40.9 1.4 40 0 39 0H2.7C1.3 0 0 1.4 0 2.8zm24.6 54.5v12c2.4 0 4.1.2 6-1.6 2.5-2.4 2.9-10.6-3.9-10.6l-2.1.2zm-15.7 0v5.5c2 0 5 .3 5-3.1 0-3.1-4.3-2.7-5-2.4zm.4-13.4c0-1.5 1-2.2 2.2-3.1.4-.3.6-.6 1.1-.7-.3 1.2-1.6 3.8-3.3 3.8zm36.4-7.5c0 1-.8 1.6-1.7 1.5-1.1-.1-1.7-.6-2.3-1-.5-.3-3.6-2.3-3.9-2.7.9 0 1.8-.1 2.6.1.9 0 5.3-.3 5.3 2.1zm-29.3-1.2c1-4.2 2.1-8.5 3.1-12.8l6.2 5.5c.3.3.4.3.7.6l4.2 3.5-4 .5c-2.7.5-6.2 1.1-8.7 2.1-.4.2-1.1.4-1.5.6zm-.9-21.5c0-.5 2.4-3.8 2.4 3.7-.7-.5-2.4-2.6-2.4-3.7zM7 43.5c0 3.6 2.9 3.6 5.1 1.9.7-.5 1.3-1.3 1.7-2.1.5-.9.8-1.6 1.2-2.7.5-1.5.4-2.3 1.1-2.6 3-1.5 8.7-2.8 11.9-3.2 1.3-.1 2.2-.2 3.5-.3 1.9-.1 1.6-.5 3.1.5 1.5 1.1 2.9 2 4.5 3.1 1.4 1 3 2.3 5.2 2.3 1.1 0 2.1-.5 2.7-1.1 1.6-1.6 1.8-4.9-1.1-6.4-2.3-1.2-7.2-1.1-10.1-1-1.7 0-1.3.2-2.2-.6L23.7 23c-.8-.7-2.9-2.9-3.6-3.2 0-.8.1-.8.1-1.6 0-2.6.4-7.1-2.8-7.9-1.9-.4-4.3.7-4.3 3.7 0 1.3 1.2 3 1.8 3.8 2.7 3.4 2.8 1.5 1.9 5.3l-2.7 11.2c-.7 2.8-.1 1.8-2.2 3.2-2 1.3-4.9 3.3-4.9 6z"/></svg>