<svg id="Слой_1" xmlns="http://www.w3.org/2000/svg" viewBox="0 0 97 74"><style>.st0{fill-rule:evenodd;clip-rule:evenodd;fill:#049595;} .st1{fill:#049595;}</style><path class="st0" d="M32.5 31.8c-.8.7-1.6 1.6-2.4 2.5-2.3 2.7-4.8 6.3-8.4.9-2.5-3.7-4.1-9.1-5.2-14.1C13.1 6.5 18-.6 33.3 3.7c1.9.5 1.7-.4 3.6-.9 4.1-1.3 6.2.3 8.9-.4 4-1.1 9.1-.9 12.6 1.1 1.7 1 4.1 3 4.7 4.9 1.8 6.3-3.2 16.9-6.4 22.2-1 1.7.9 1.5 2.6 1.3 1.7-.1 2.6-.6 4.2-.2.4 1.3 0 2-.9 2.6-3 2.2-5.4 2.4-9.2 2.1-.2 2.8-.6 7-1.4 9.8-.8 3.2-2.4 4.4-5.8 5-8 1.6-7.6-7.9-7.5-14.1-2 .8-2.2 1.7-5.3 1.5-1.9-.1-4.5-.9-3.8-2.8.6-.9 1.9-1 3.3-1.3 1.8-.5 1.6-.7 2.4-1.8l-2.8-.9zM13.9 14.2v-3c.2-2.8 1.1-5.4 3-7.4 5.6-5.7 15-1.7 17.1-1.7.5 0 1.9-1.9 8.3-1.3 2.6.3 1.8.2 4.1-.3 1.3-.3 2.9-.5 4.5-.5 6.1 0 9 1.7 12.5 5.3 4.4 4.5-1.7 18.3-4.1 23.1-.5.9-.9 1.2-1.1 2.2 1.1 0 2.4 0 3.2-.2 3.6-.6 5.1.3 2.9 3.9-1.8 3-5 3.5-9.7 3.5-.4 1.5-.5 3.9-.7 5.5-.3 1.9-.5 3.6-1.1 5.1-1.3 2.8-5.1 4.4-8 4.4-7.6 0-7.5-6.5-7.5-13.7-3.2 1.5-7 .5-9.3-1-6.9 6-11.4-11.5-12.6-16.3-.8-2.3-1.3-5-1.5-7.6zm16.4 1.2c5-1.8 8.1-2.3 8.9 3.7.7 4.8-.6 8-2.2 11.8 1 .9 3 .2 3.2 3.4.1 2.2 0 4.7 0 6.9.1 4.2.2 9.2 5.2 8.6 5-.6 5.2-3.2 5.8-7.9.3-2 .5-4.1.7-6.2.3-3.2 0-3.2 2.2-4.7-.9-.9-7.8-11.6-5.2-15.3 1.2-1.8 2.9-1.8 5.6-1.9C53.2 9 47.8 4.3 41.9 3.7 34.1 3 31 8.4 30.3 15.4zm21.5.7c.5-.1 1 0 1.5.1-.2 1.6-1.3 1.6-2.4.9.1-.6-.1-.8.9-1zm2.2 12c1-1.7.5-4 .3-6-.3-2.8.3-4.2.3-6.7-4.5-.1-5.9.9-4.3 5.5.3.9 2.8 6.3 3.7 7.2zM34.3 17.5c-.6-1 0-.8 0-.8 1-.6 1.9-.3 2.4.5-.8 1.6-2 .8-2.4.3zm-4.1-.2c.1 4.3-2 13.3 5.1 13.6.3-.5 1.7-3.9 2-4.7 1-2.7 1.3-9.9-1.7-10.5-2.1-.4-4.1.9-5.4 1.6zm.9 13.5c-4-5-2.2-6-2.3-13.3-.1-3.4.7-7 2.3-10 .6-1.1 1.2-1.6 1.7-2.4-1.2-.8-20.3-7.1-14.9 15.4 1.1 4.7 2.3 8.9 4.4 12.9 3.2 6 5.3 1.1 8.8-2.6zM47.9 3.3c-.4.3-.2.2-.5.7 2.9.8 7.5 6 8.6 9.6.7 2.2-.4 5.7-.1 8.6.5 4.6.1 4-.8 7.7 2.5-2 6.3-13.1 6.7-17 .6-4.9-1-6.2-3.9-7.9-3.3-2-6-1.8-10-1.7zm5.6 31.4c2.9.9 6-.2 7.8-1.7-1.8 0-3.3.6-5.2 0-1.5-.5-2.7-.8-2.6 1.7zm-22.4 1.9c1.7.4 3.3.8 5.1 0 1-.4 3-1.8 2.3-3.2-1-2-2.5.7-3.1 1.3-1.1 1-2.6 1-3.3 1.3-1.1.4.3-.2-.6.3 0 0-.1.2-.2.1-.1 0-.1.2-.2.2z"/><path class="st1" d="M8.3 61.8c0-1.7-.8-2.6-2.5-2.6H1.3v5.1h4.3c1.7.1 2.7-.8 2.7-2.5zm1.2 0c0 1.1-.3 2-1 2.6-.6.6-1.5.9-2.7.9H1.2v5.2H0V58.3h6.2c1.1 0 1.9.3 2.5.9.5.6.8 1.5.8 2.6zM17.4 66.5c0-2.3-1.1-3.4-3.3-3.4-1 0-1.8.3-2.4.9-.3.3-.5.7-.6 1.1-.1.4-.2.9-.2 1.4 0 1.1.3 1.9.8 2.5.6.6 1.3.9 2.4.9 1.1 0 2-.3 2.5-1 .3-.3.5-.6.6-1.1.2-.2.2-.7.2-1.3zm1.1 0c0 1.3-.3 2.3-1 3.1-.8.8-1.9 1.2-3.4 1.2-.7 0-1.3-.1-1.8-.3-.5-.2-1-.5-1.4-.9-.7-.8-1.1-1.8-1.1-3.1s.3-2.3 1-3.1c.8-.8 1.8-1.3 3.2-1.3 1.5 0 2.6.4 3.4 1.2.8.9 1.1 1.9 1.1 3.2zM27.2 68.3c0 1.7-1.2 2.5-3.7 2.5-.8 0-1.4-.1-1.9-.2s-.9-.3-1.3-.6c-.3-.2-.5-.5-.6-.8-.1-.3-.2-.7-.3-1.2h1.2c0 .6.2 1.1.6 1.4.4.4 1.2.6 2.3.6 1.7 0 2.6-.5 2.6-1.6 0-.6-.3-1-.9-1.2-.1-.1-.8-.2-2.1-.4s-2.1-.4-2.4-.5c-.7-.3-1-.9-1-1.8 0-.8.3-1.4.9-1.8.3-.2.7-.3 1.1-.4.5-.1 1-.1 1.6-.1 2.4 0 3.6.9 3.6 2.7h-1.1c0-1.3-.8-1.9-2.5-1.9-.9 0-1.5.1-1.9.4-.4.3-.6.6-.6 1.2 0 .5.3.8.9 1.1.3.1 1.1.3 2.3.4 1.1.1 1.8.3 2.2.5.6.3 1 .9 1 1.7zM32.2 70.6c-.2 0-.3.1-.5.1h-.3c-.8 0-1.3-.1-1.6-.4-.3-.3-.5-.7-.5-1.4v-5.6H28v-.8h1.4v-2.7h1.1v2.7h1.8v.8h-1.8v5.4c0 .4.1.7.3.8.2.2.5.2 1 .2h.2c.1 0 .2 0 .4-.1l-.2 1z"/><path class="st1" d="M39.8 66.3c0-1-.3-1.7-.8-2.3-.5-.6-1.3-.9-2.4-.9-1 0-1.8.3-2.4.9-.6.6-.8 1.4-.8 2.4 0 2.2 1.1 3.3 3.3 3.3.5 0 .9-.1 1.3-.2s.7-.4 1-.7c.5-.7.8-1.5.8-2.5zm1.1 4c0 2.4-1.4 3.7-4.1 3.7-1.4 0-2.5-.2-3.1-.7-.5-.4-.8-1.1-1-2h1.1c.1.7.4 1.1.7 1.4.4.3 1.2.5 2.2.5 1.1 0 1.9-.3 2.4-.8s.7-1.2.7-2.1v-1.4c-.7 1-1.8 1.6-3.4 1.6-1.3 0-2.4-.4-3.1-1.1-.3-.4-.6-.8-.8-1.3-.2-.5-.3-1.1-.3-1.7 0-1.3.3-2.3 1-3 .7-.8 1.8-1.1 3.2-1.1.9 0 1.7.2 2.3.6.2.1.5.5 1 1.1v-1.4h1.1v7.7h.1zM47 63.3c-.3-.1-.6-.1-.9-.1-1.7 0-2.6 1.1-2.6 3.4v3.9h-1.1v-8h1.1v1.4h.1c.2-.6.5-1 .8-1.3.4-.3 1.1-.4 1.9-.4h.7v1.1zM54.6 66c0-.8-.3-1.5-.9-2.1-.6-.6-1.4-.9-2.3-.9-.5 0-.9.1-1.3.2s-.7.4-1 .7c-.5.5-.8 1.2-.9 2.1h6.4zm1.1.8h-7.5c0 .9.3 1.7.8 2.3.6.7 1.4 1 2.5 1 1.6 0 2.5-.7 2.9-2.1h1.1c-.2.8-.6 1.5-1.2 2-.4.3-.8.5-1.3.7-.5.2-1 .2-1.6.2-1.4 0-2.5-.4-3.3-1.3-.7-.8-1.1-1.8-1.1-3.1s.4-2.3 1.1-3.1c.8-.8 1.8-1.1 3.2-1.1.7 0 1.4.1 1.9.3.5.2 1 .5 1.4 1 .8.7 1.1 1.8 1.1 3.2zM69.5 67.3c0 2.9-2 4.3-5.9 4.3-2.3 0-4-.5-5.1-1.5-.9-.8-1.3-2.1-1.3-3.7h1.6c0 2.7 1.6 4 4.9 4 1.6 0 2.7-.3 3.4-.8.6-.5.9-1.2.9-2.3 0-1-.4-1.7-1.2-2.2-.5-.2-1.6-.5-3.3-.8-2.2-.4-3.7-.8-4.3-1.2-1-.6-1.4-1.6-1.4-3 0-1.3.4-2.3 1.2-2.9.9-.7 2.4-1.1 4.5-1.1 3.8 0 5.7 1.5 5.7 4.5h-1.6c0-2.3-1.4-3.4-4.3-3.4-1.4 0-2.5.2-3.1.7-.6.5-.9 1.2-.9 2.1 0 1 .4 1.7 1.2 2.1.4.2 1.7.5 3.8 1 2 .4 3.3.8 4 1.2.7.6 1.2 1.6 1.2 3zM83.7 63.9c0-1-.1-1.9-.4-2.7-.3-.8-.7-1.5-1.3-2.1-1.1-1.2-2.6-1.8-4.5-1.8s-3.4.6-4.5 1.7c-1.1 1.2-1.7 2.8-1.7 4.9 0 2 .6 3.6 1.7 4.8 1.2 1.2 2.7 1.8 4.5 1.8.9 0 1.7-.1 2.5-.4.7-.3 1.4-.7 2-1.3 1.2-1.2 1.7-2.9 1.7-4.9zm1.4 7.7l-1 1-2.3-1.9c-.5.3-1.1.5-1.8.7-.7.2-1.5.2-2.5.2-2.4 0-4.3-.7-5.7-2.1-1.4-1.4-2.1-3.3-2.1-5.6 0-2.4.7-4.3 2.1-5.7 1.3-1.4 3.2-2.1 5.5-2.1h.3c1.2 0 2.2.2 3.2.6 1 .4 1.8.9 2.5 1.7 1.3 1.4 1.9 3.2 1.9 5.5 0 1.3-.2 2.4-.6 3.4-.4 1-1 1.8-1.8 2.5l2.3 1.8zM97 71.2H86.3V56.5h1.5V70H97v1.2z"/></svg>