<svg id="Слой_1" xmlns="http://www.w3.org/2000/svg" viewBox="0 0 188 115"><style>.st0{fill:#FFFFFF;}</style><path class="st0" d="M87.4 77.6l35.4-14.4c-2.5-.8-4.6-1.4-6.4-1.9-3.7-1.1-6.7-2-13-4l-1.2-.4 1.1-.6c13-7.9 30.9-20 46.8-30.7 5.2-3.5 10.3-6.9 14.6-9.8 1.8-1.2 4-2.6 6.2-4 3.8-2.4 8-5 11.1-7.4-7.7 3.2-22.3 10-35.3 16-9.7 4.5-18.5 8.6-23 10.5-5.8 2.5-14.8 6.6-24.3 11-6.2 2.8-12.6 5.8-18.4 8.4L96.9 59l.5.3-.3.5-9.7 17.8zm37.3-14L86.4 79.2l-1.5.6.8-1.4 10.2-18.7-16.4-8.8-1-.5 1-.5C85.8 47 92.5 44 99 41c9.6-4.4 18.6-8.5 24.3-11 4.6-2 13.4-6.1 23-10.5 15.5-7.2 33.1-15.4 39-17.5l2.8-1-2.2 1.9c-3.3 2.9-9 6.5-14.2 9.8-2.2 1.4-4.4 2.8-6.2 4-4.6 3.1-9.5 6.4-14.6 9.8-15.5 10.4-32.9 22.1-45.8 30 5.5 1.7 8.3 2.6 11.8 3.6 2.1.6 4.4 1.3 8 2.4l1.5.5-1.7.6z"/><path class="st0" d="M57.2 60.3c3.8 1.3 8.5 2.5 12.5 3.5 2.9.7 5.4 1.3 6.8 1.8l1.4.5-1.3.6c-1.6.7-21.8 13.2-40.7 25-11.8 7.3-23 14.4-28.9 18.2l70.4-28.6 11.1-19.1L73 53.6c-3.5 1.6-6.8 3-9.6 4.2-2.3 1-4.4 1.9-6.2 2.5zm12.3 4.6c-4.5-1.1-10-2.5-14-4.1l-1.5-.4 1.4-.5c2-.7 4.6-1.8 7.5-3.1 3-1.3 6.3-2.7 9.9-4.3l.3-.1.2.1 16.3 9.1.5.3-.3.5-11.5 19.7-.1.2-.2.1-75.4 30.5L0 114l2-2c1-1 16.6-10.9 33.3-21.3C52.1 80.2 70 69.2 74.9 66.4c-1.4-.5-3.3-.9-5.4-1.5z"/></svg>