<svg id="Слой_1" xmlns="http://www.w3.org/2000/svg" viewBox="0 0 71 71"><style>.st0{fill:#049595;}</style><path class="st0" d="M64.1 1.4H7c-.7 0-1.5.1-2.1.4-.7.3-1.3.7-1.8 1.2-.6.6-1 1.2-1.3 1.8-.2.7-.4 1.4-.4 2.1V64c0 .7.1 1.5.4 2.1.3.7.7 1.3 1.2 1.8s1.1.9 1.8 1.2c.6.3 1.4.4 2.1.4H64c.7 0 1.5-.1 2.1-.4.7-.3 1.3-.7 1.8-1.2s.9-1.1 1.2-1.8c.3-.6.4-1.4.4-2.1V6.9c0-.7-.1-1.5-.4-2.1-.2-.6-.6-1.2-1.1-1.8-.5-.5-1.1-.9-1.8-1.2-.7-.2-1.4-.4-2.1-.4zM7 0h57.1c.9 0 1.8.2 2.7.5.8.4 1.5.9 2.2 1.5.6.6 1.2 1.4 1.5 2.3.3.8.5 1.7.5 2.6V64c0 .9-.2 1.8-.5 2.7-.4.8-.9 1.6-1.5 2.3-.6.6-1.4 1.2-2.3 1.5-.8.3-1.7.5-2.6.5H7c-.9 0-1.8-.2-2.7-.5-.9-.4-1.6-.9-2.3-1.5-.6-.6-1.2-1.4-1.5-2.3C.2 65.9 0 65 0 64V6.9c0-.9.2-1.8.5-2.6.4-.9.9-1.6 1.5-2.3C2.6 1.4 3.4.8 4.3.5 5.1.2 6 0 7 0z"/><path class="st0" d="M11.2 53.8l3.4-.3c.2 1.1.6 2 1.2 2.5s1.5.8 2.5.8c1.1 0 2-.2 2.5-.7.6-.5.9-1 .9-1.7 0-.4-.1-.8-.4-1-.2-.3-.7-.5-1.3-.7-.4-.1-1.3-.4-2.8-.8-1.9-.5-3.2-1-3.9-1.7-1.1-1-1.6-2.1-1.6-3.5 0-.9.2-1.7.7-2.5.5-.8 1.2-1.4 2.2-1.8.9-.4 2.1-.6 3.4-.6 2.2 0 3.8.5 4.9 1.4 1.1 1 1.7 2.2 1.7 3.9l-3.5.1c-.1-.9-.5-1.5-1-1.9-.5-.4-1.2-.6-2.2-.6-1 0-1.8.2-2.4.6-.4.3-.6.6-.6 1.1 0 .4.2.8.5 1.1.4.4 1.5.8 3.2 1.2 1.7.4 2.9.8 3.8 1.2.8.4 1.5 1 1.9 1.8.5.7.7 1.7.7 2.8 0 1-.3 1.9-.8 2.8-.6.9-1.3 1.5-2.3 1.9-1 .4-2.3.6-3.8.6-2.2 0-3.9-.5-5-1.5-1-1.1-1.7-2.5-1.9-4.5zm16.9 0l3.4-.3c.2 1.1.6 2 1.2 2.5s1.5.8 2.5.8c1.1 0 2-.2 2.5-.7.6-.5.9-1 .9-1.7 0-.4-.1-.8-.4-1-.2-.3-.7-.5-1.3-.7-.4-.1-1.3-.4-2.8-.8-1.9-.5-3.2-1-3.9-1.7-1.1-1-1.6-2.1-1.6-3.5 0-.9.2-1.7.7-2.5.5-.8 1.2-1.4 2.2-1.8.9-.4 2.1-.6 3.4-.6 2.2 0 3.8.5 4.9 1.4 1.1 1 1.7 2.2 1.7 3.9l-3.5.1c-.1-.9-.5-1.5-1-1.9-.5-.4-1.2-.6-2.2-.6-1 0-1.8.2-2.4.6-.4.3-.6.6-.6 1.1 0 .4.2.8.5 1.1.4.4 1.5.8 3.2 1.2 1.7.4 2.9.8 3.8 1.2.8.4 1.5 1 1.9 1.8.5.7.7 1.7.7 2.8 0 1-.3 1.9-.8 2.8-.6.9-1.3 1.5-2.3 1.9-1 .4-2.3.6-3.8.6-2.2 0-3.9-.5-5-1.5-.9-1.1-1.6-2.5-1.9-4.5zM46 59.4V42.1h3.5V49h6.8v-6.8h3.5v17.3h-3.5v-7.6h-6.8v7.6H46v-.1zM23.2 17.4v-1.3l-12-4.8v1.3l10.5 4.2L11.2 21v1.3l12-4.9zM29.1 26.2h30.7v1H29.1v-1z"/></svg>