<svg id="Слой_1" xmlns="http://www.w3.org/2000/svg" viewBox="0 0 64 71"><style>.st0{fill-rule:evenodd;clip-rule:evenodd;fill:#049595;}</style><path class="st0" d="M1.8 67.7C2.8 69.4 5 71 7.7 71l10.8-13.3c.3-.4.6-.6.9-1.1.3-.4.6-.8 1-1.2.3-.4.6-.7.9-1.1l8.2-10.1c1.3-1.5 2.4-2.9 3.6-4.4l3.6-4.6c-1.1-1.6-7-8.5-8.9-11-.3-.4-.6-.7-.9-1.1l-2.7-3.3C22.8 18.3 8.1 0 7.8 0 2.9 0 .4 4.2.4 8.5.5 20.6-1.2 63 1.8 67.7zm39.8-32.4c0 .4 4.5 5.7 4.8 6.1l4.8 6c1.2-.8 2.5-1.4 3.8-2.2 1.3-.8 2.6-1.5 3.8-2.2 2.4-1.4 5.1-3.8 5.1-6.9 0-2.6-.1-3.1-1.9-5.4-.9-1.2-2-1.9-3.4-2.7-1.3-.8-2.4-1.4-3.7-2.2l-3.8-2.2c-.8.5-7.2 8.6-8.5 10.2-.1.3-1 1.2-1 1.5zm-27 33.2l8.3-4.8c1.4-.8 2.7-1.6 4.1-2.4l4.2-2.4c1.4-.9 2.7-1.6 4.2-2.4 1.6-1 11.8-7 12.6-7.1-.8-1.6-8.5-10.2-8.7-11-.6.2-1 .8-1.7 1.7L33 45.7c-3.4 4.3-7.3 8.7-10.7 13.1l-6.2 7.6c-.5.7-1.3 1.4-1.5 2.1zM15.1 3c.1 0 0 0 0 0zm24.2 29.3c.2-.6.6-.8 1-1.3l7.6-9.3c-5-2.6-11.2-6.6-16.2-9.3-.8-.4-1.3-.8-2-1.2-1.4-.8-13.7-8-14.4-8.2.2.6 6.5 8.3 7.3 9.2.6.6 1 1.2 1.5 1.9l13.5 16.5c.7.9 1.1 1.5 1.7 1.7z"/></svg>