<svg id="Слой_1" xmlns="http://www.w3.org/2000/svg" viewBox="0 0 260 90"><style>.st0{fill-rule:evenodd;clip-rule:evenodd;fill:#FFFFFF;}</style><path class="st0" d="M119.4 49.3c0-1.2-1.1-1.5-2.9-2-1.2-.3-2.5-.8-3.6-1.4-.3 1.3-.5 2.6-.8 3.9 1.2.5 2.9 1.1 4.7 1.1 1.8 0 2.6-.6 2.6-1.6zm50.6-9c-.3-.4-.7-.7-1.1-.9-.5-.2-1-.3-1.7-.3s-1.2.1-1.7.3c-.5.2-.9.5-1.2.9-.3.4-.6.8-.7 1.3-.2.5-.3 1-.4 1.5h7.7c0-.5-.1-1-.3-1.4-.1-.6-.3-1-.6-1.4zm18.3 6.2c-.5 0-1.1 0-1.5.1-.5.1-.9.2-1.3.4s-.6.4-.9.7c-.2.3-.3.7-.3 1.2 0 .9.3 1.5.9 1.9.6.4 1.4.5 2.5.5h1.6c.5 0 .9-.1 1.2-.1v-4.4c-.2-.1-.6-.1-1-.2-.3-.1-.8-.1-1.2-.1zM253.9 90c-.9-.1-2.1-.2-3-.3-.7-.1-5.8-.7-13.8-1.7l-5.2-.6-5.6-.7-12.7-1.7-14-1.7c-14.2-1.8-29.5-3.7-42.9-5.3L145 76.5c-15.4-1.9-26.5-3.3-27.7-3.5-.8-.1-1.5-.2-2.3-.3-.1 0-.3 0-.4-.1-.1 0-.3 0-.4-.1-.1 0-.2 0-.3-.1h-.2-.1c-.2 0-.3-.1-.5-.1-.3-.1-.7-.2-1-.3l-.6-.3c-.3-.2-.5-.3-.7-.5-.3-.2-.5-.5-.7-.7-.1-.2-.3-.4-.4-.6-.2-.3-.3-.5-.4-.8 0-.1 0-.1-.1-.2-.1-.2-.1-.4-.2-.6-.1-.2-.1-.5-.1-.7v-1.3c0-.3.1-.5.1-.8.5-2.4 1.2-5.7 1.9-9.3l.3-1.5c1.7.7 3.8 1.2 6 1.2 4.5 0 8.1-2.2 8.1-6.8 0-4.1-2.9-5.5-6.2-6.7-.5-.2-1-.3-1.4-.5-.2-.1-.4-.1-.6-.2-.4-.1-.8-.3-1.1-.5-.1-.1-.2-.1-.3-.2-.3-.2-.5-.5-.6-.8v-.1-.1-.1-.1c0-.1.1-.1.1-.2l.2-.2s.1 0 .1-.1h.1c.1 0 .2-.1.4-.1h.4c1.6 0 3.8.8 6.5.8 1.2 0 2.2-.4 2.2-.4V35c-.1 0-.2 0-.3.1-.3.1-.7.1-1.1.1h-1.2c-2.2 0-3.8-.8-6.2-.8-.4 0-.7 0-1 .1l.4-2c.7-3.6 1.3-6.4 1.7-8 0-.2.1-.4.1-.5 0-.2.1-.3.1-.4 0-.1 0-.2.1-.3V23c0-.1 0-.1.1-.2v-.2l.1-.2c.1-.2.1-.3.2-.4 0-.1.1-.2.1-.3v-.1c.1-.2.2-.5.3-.7v-.1c.1-.1.1-.2.2-.3.1-.2.2-.3.3-.5.1-.1.1-.2.2-.2v-.1c.1-.1.1-.2.2-.3.1-.1.2-.3.4-.4h.1l.3-.3.1-.1c.1 0 .1-.1.2-.1s.1-.1.2-.1c.1-.1.3-.2.5-.3l.1-.1h.5c.1 0 .2-.1.3-.1.1 0 .2-.1.3-.1l.1-.1H122.8c.1 0 .1 0 .2-.1h.2c.1 0 .1 0 .2-.1.1 0 .2 0 .2-.1H123.9c.2 0 .4-.1.6-.1.1 0 .2 0 .4-.1 1-.1 2-.2 3.1-.4 1.4-.2 12.7-1.9 27.3-4 7.8-1.2 16.5-2.4 25.2-3.7C203.6 5.7 226 2.4 228.2 2c.6-.1 1.1-.2 1.7-.3l.8-.1.4-.1.7-.1.4-.1.3-.1.4-.1.4-.1.3-.1.4-.1.4-.1c.3-.1.7-.1 1-.1h1.6c.1 0 .2 0 .3.1h.5c.2.1.4.1.6.2h.1c.1.1.2.1.3.2.1 0 .1.1.2.1s.1.1.2.1c.3.2.7.5.9.9.1.2.3.4.4.6l.1.1c0 .1.1.2.1.3.1.2.1.3.2.5.2.4.3.9.5 1.3l.1.2c.1.3.2.5.2.8.1.5.3 1 .4 1.5.9 4.4 3.3 15.5 6 28l.6 3 4.6 21.6 1.9 8.9.6 3 1.7 7.7c.4 2 .8 3.8 1.3 5.8V85.8c0 .1 0 .3.1.4v.8c0 .4-.1.7-.2 1 0 .1-.1.3-.2.4 0 0 0 .1-.1.1-.1.1-.1.2-.2.3-.3.4-.6.8-1 1-.3.2-.6.3-.9.5-.2.1-.4.1-.6.2-.2 0-.4.1-.7.1h-1.2c.8-.6.5-.6.1-.6zm-25.1-34.6H223V44.5v-.6c0-.3 0-.6-.1-.9v-.5c0-.2-.1-.4-.1-.6 0-.1 0-.1-.1-.2-.1-.2-.1-.5-.2-.7 0 0 0-.1-.1-.1 0 0 0-.1-.1-.1 0 0 0-.1-.1-.1 0-.1-.1-.1-.1-.2l-.3-.3s-.1-.1-.2-.1c-.1-.1-.3-.2-.5-.2-.1 0-.1 0-.2-.1H220.6c-.1 0-.2 0-.3-.1h-.9c-.1 0-.2 0-.3.1-.1 0-.1 0-.2.1-.1 0-.2.1-.3.1h-.1c-.1 0-.1 0-.2.1-.1 0-.1 0-.2.1-.4.1-.7.3-.9.4.2.6.3 1.2.3 1.9.1.7.1 1.4.1 2.1v11.2h-5.8V44.5v-.6c0-.3 0-.6-.1-.9v-.5c0-.2-.1-.4-.1-.6 0-.1 0-.1-.1-.2-.1-.2-.1-.5-.2-.7 0 0 0-.1-.1-.1 0 0 0-.1-.1-.1 0 0 0-.1-.1-.1 0-.1-.1-.1-.1-.2l-.3-.3s-.1-.1-.2-.1c-.1-.1-.3-.2-.5-.2-.1 0-.1 0-.2-.1H209.4c-.1 0-.2 0-.3-.1h-1.6c-.3 0-.5.1-.7.1-.1 0-.2 0-.4.1v15.8h-5.8V40.4v-.5c-.1-1.9-.4-3.9-.4-3.9.5-.1 1.5-.4 2.2-.5.7-.1 1.4-.3 2.1-.4.7-.1 1.5-.2 2.3-.3.8-.1 1.5-.1 2.3-.1 1.5 0 2.7.2 3.6.6.9.4 1.7.8 2.3 1.3.8-.6 1.8-1.1 2.9-1.4 1.1-.3 2.1-.5 3-.5 1.6 0 3 .2 4 .7 1.1.5 1.9 1.1 2.5 1.9.6.8 1 1.8 1.3 3 .2 1.1.3 2.4.3 3.8v11.3h-.2zm-36 0c-1.5.2-3.3.4-5.4.4-1.3 0-2.5-.1-3.6-.4-1.1-.2-2-.6-2.8-1.2-.8-.5-1.4-1.2-1.8-2.1-.4-.9-.6-1.9-.6-3.2 0-1.2.2-2.2.7-3 .5-.8 1.1-1.5 1.9-2 .8-.5 1.7-.9 2.8-1.1 1-.2 2.1-.3 3.2-.3.7 0 1.4 0 2 .1.6.1 1.1.2 1.4.3v-.5-.4c0-.2 0-.3-.1-.4 0-.1 0-.2-.1-.2-.1-.4-.2-.7-.5-1l-.2-.2-.1-.1-.1-.1h-.1l-.1-.1c-.1-.1-.2-.1-.3-.2-.1 0-.2-.1-.3-.1-.2-.1-.3-.1-.5-.2H183.8c-.1 0-.3 0-.4.1H182.8c-.1 0-.2 0-.2.1-.1 0-.1 0-.2.1-.1 0-.1 0-.2.1H181.9c-.1 0-.3.1-.4.1l-.7-4.7c.3-.1.8-.2 1.3-.3.5-.1 1.1-.2 1.7-.3.6-.1 1.2-.2 1.9-.2.7-.1 1.3-.1 2-.1 1.7 0 3.1.2 4.3.6 1.1.4 2.1 1 2.7 1.7.7.7 1.2 1.6 1.5 2.7.3 1 .4 2.2.4 3.5V52c.1 1.5.4 2.8.4 2.8-1.2.1-2.7.4-4.2.6zm-16.3-9.5c0 .4-.1.8-.1 1.1h-13.1v.6c0 .1 0 .1.1.2 0 .1 0 .1.1.2v.1s0 .1.1.1v.2s0 .1.1.1c0 .1.1.1.1.2s.1.1.1.2v.1l.2.2.1.1.1.1.1.1c.1.1.2.2.3.2l.1.1s.1 0 .1.1l.1.1c.1 0 .1.1.2.1l.1.1h.1c.2.1.3.2.5.2h.2c.1 0 .2.1.4.1.1 0 .2 0 .2.1h2.9c.1 0 .2 0 .4-.1.1 0 .2 0 .3-.1.2 0 .5-.1.7-.2.2-.1.4-.1.6-.2.1 0 .1 0 .2-.1.3-.1.5-.2.7-.3.7-.3 1.2-.6 1.2-.6l.7 2.2.8 2.2s-2.7 2-7.2 2c-1.8 0-3.4-.3-4.8-.8s-2.5-1.3-3.4-2.2c-.9-.9-1.6-2.1-2-3.4-.4-1.3-.6-2.7-.6-4.2 0-1.8.3-3.4.8-4.8.6-1.4 1.3-2.5 2.2-3.4.9-.9 1.9-1.6 3.1-2.1 1.2-.5 2.4-.7 3.6-.7 2.9 0 5.2.9 6.9 2.7 1.7 1.8 2.5 4.4 2.5 7.9.2.8.2 1.1.2 1.5zM155.3 40c-.5-.1-1.1-.3-1.8-.4h-.3c-.1 0-.2 0-.3-.1h-1.7c-.4 0-.8 0-1.3.1-.2 0-.3 0-.4.1-.1 0-.2 0-.3.1-.1 0-.2 0-.2.1h-.1v15.7H143v-15c0-.6 0-1.3-.1-1.9 0-.2 0-.4-.1-.6-.1-1-.2-1.8-.2-1.8 1-.4 2.7-.8 4.1-1.2 1.4-.3 3-.5 4.7-.5.3 0 .7 0 1.1.1.4 0 .9.1 1.3.2s.9.1 1.3.2.8.2 1.1.3l-.9 4.6zm-18.8 15.8c-1.6 0-2.9-.2-3.9-.6-1-.4-1.9-1-2.5-1.8-.6-.8-1.1-1.7-1.3-2.8-.2-1.1-.4-2.3-.4-3.6V28.1l5.8-.9v7.7h4.9v4.8h-4.9v7.5c0 .3 0 .6.1.8 0 .1 0 .2.1.3 0 .2.1.3.1.5v.2c0 .1.1.2.1.3v.2c0 .1.1.1.1.2s.1.1.1.2v.1l.2.2.1.1h.1c.1.1.2.1.3.2.1 0 .1 0 .2.1h.2c.1 0 .2 0 .3.1H137c.6 0 .9 0 1.5-.1l.7 4.7c-.4.4-1.4.5-2.7.5zM1.4 49s3 2.1 6.6 2.1c1.8 0 2.6-.5 2.6-1.5 0-1.2-1.1-1.5-2.9-2-3.4-1-7.3-2.6-7.3-6.9 0-3.7 2.8-6.2 7.1-6.2 2.4 0 3.9.8 6.2.8.5 0 2 0 2.6-.2v4.6s-1 .4-2.2.4c-2.7 0-4.8-.8-6.5-.8-.9 0-1.5.5-1.5 1.1 0 .9 1.2 1.3 2.6 1.8 3.9 1.3 7.7 2.6 7.7 7.2s-3.6 6.8-8.1 6.8c-3.4 0-6.8-1.4-8.3-2.4L1.4 49zm18.2-20.6l5.8-.9v7.7h4.9V40h-4.9v7.2c0 1.2.2 2.2.6 2.9.4.7 1.3 1.1 2.6 1.1.6 0 .9 0 1.5-.1l.7 4.7c-.9.2-1.9.3-3.1.3-1.6 0-2.9-.2-3.9-.6-1-.4-1.9-1-2.5-1.8-.6-.8-1.1-1.7-1.3-2.8-.2-1.1-.4-2.3-.4-3.6V28.4zm48.2 16.8c0-3.7-1.4-5.6-4.1-5.6-.6 0-1.2.1-1.8.2-.6.2-1.1.4-1.4.6V51c.3.1.6.1 1.1.1.4 0 .9.1 1.4.1 1.6 0 2.8-.5 3.6-1.6.8-1.1 1.2-2.6 1.2-4.4zm6 .2c0 1.6-.2 3.1-.7 4.4-.5 1.3-1.2 2.5-2.1 3.4-.9.9-2 1.7-3.3 2.2-1.3.5-2.8.8-4.5.8-.7 0-1.4 0-2.2-.1-.8-.1-1.5-.1-2.3-.3-.7-.1-1.4-.2-2.1-.4-.7-.1-1.7-.4-2.2-.6 0 0 .4-2.6.4-4.3V28.3l5.8-.9v8.1c.6-.3 1.3-.5 2-.7.7-.2 1.4-.2 2.3-.2 1.5 0 2.7.3 3.9.8 1.1.5 2 1.2 2.8 2.2.8.9 1.3 2.1 1.7 3.4.3 1.3.5 2.8.5 4.4zm9.3 10.3V27.5l-5.8.9v27.3h5.8zm17.3-12.4c0-.5-.1-1-.3-1.4-.1-.5-.4-.9-.7-1.3-.3-.4-.7-.7-1.1-.9-.5-.2-1-.3-1.7-.3-.6 0-1.2.1-1.7.3-.5.2-.9.5-1.2.9-.3.4-.5.8-.7 1.3-.2.5-.3 1-.4 1.5h7.8v-.1zm-13.6 2.3c0-1.8.3-3.4.8-4.8.6-1.4 1.3-2.5 2.2-3.4.9-.9 1.9-1.6 3.1-2.1 1.2-.5 2.4-.7 3.6-.7 2.9 0 5.2.9 6.9 2.7 1.7 1.8 2.5 4.4 2.5 7.9v1.1c0 .4-.1.8-.1 1.1H92.7c.1 1.2.7 2.1 1.7 2.8 1 .7 2.3 1.1 4 1.1 2.4 0 4.9-1.4 4.9-1.4l1.5 4.4s-2.7 2-7.2 2c-1.8 0-3.4-.3-4.8-.8s-2.5-1.3-3.4-2.2c-.9-.9-1.6-2.1-2-3.4-.4-1.4-.6-2.8-.6-4.3zm-44.8 6h1.6c.5 0 .9-.1 1.2-.1V47c-.2-.1-.6-.1-1-.2-.5 0-.9-.1-1.3-.1-.5 0-1.1 0-1.5.1-.5.1-.9.2-1.3.4s-.6.4-.9.7c-.2.3-.3.7-.3 1.2 0 .9.3 1.5.9 1.9.7.4 1.6.6 2.6.6zm-.4-17c1.7 0 3.1.2 4.3.6 1.1.4 2.1 1 2.7 1.7.7.7 1.2 1.6 1.5 2.7.3 1 .4 2.2.4 3.5v8c0 1.8.4 4 .4 4-.8.2-2.4.5-3.9.7-1.5.2-3.3.4-5.4.4-1.3 0-2.5-.1-3.6-.4-1.1-.2-2-.6-2.8-1.2-.8-.5-1.4-1.2-1.8-2.1-.4-.9-.6-1.9-.6-3.2 0-1.2.2-2.2.7-3 .5-.8 1.1-1.5 1.9-2 .8-.5 1.7-.9 2.8-1.1 1-.2 2.1-.3 3.2-.3.8 0 1.4 0 2 .1.6.1 1.1.2 1.4.3v-.5c0-1-.3-1.8-.9-2.4-.6-.6-1.6-.9-3.1-.9-1 0-2 .1-2.9.2-1 .1-1.8.3-2.5.6l-.7-4.7c.3-.1.8-.2 1.3-.3.5-.1 1.1-.2 1.6-.3.6-.1 1.2-.2 1.9-.2.7-.2 1.4-.2 2.1-.2z"/></svg>