<svg id="Слой_1" xmlns="http://www.w3.org/2000/svg" viewBox="0 0 126 115"><style>.st0{fill:#FFFFFF;}</style><path class="st0" d="M61.4 75.1V62c0-.2.1-.4.4-.5l20.3-9.8c.2-.1.3-.1.5 0l2.2 1.2c.3.1.4.5.2.7-.1.1-.2.2-.3.2L65 62.9v12.2c0 .3-.2.5-.5.5H62c-.3 0-.6-.2-.6-.5zm1.1-12.8v12.2h1.4v-12c0-.2.1-.4.3-.5l19-8.8-1-.5-19.7 9.6zm-.7-.9h.2-.2z"/><path class="st0" d="M67.7 74.1l-2.9 1.4c-.3.1-.6 0-.7-.2 0-.1-.1-.2-.1-.3V62.4c0-.2.1-.4.3-.5l20-9c.2-.1.3-.1.5 0l4.2 2.4c.3.1.4.5.2.7-.1.1-.1.2-.2.2l-16 8.3v9.8c0 .3-.2.5-.5.5h-.1l-4.7-.7zm-2.6.1l2.3-1.1c.1-.1.2-.1.3 0l4.1.8v-9.5c0-.2.1-.4.3-.5l15.5-8-3.1-1.8-19.4 8.7v11.4z"/><path class="st0" d="M78.2 71.2c0 .3-.2.5-.5.5s-.5-.2-.5-.5V66c0-.2.2-.4.4-.5l4.4-1.8c.3-.1.6 0 .7.3.1.3 0 .6-.3.7l-4.1 1.6v4.9h-.1z"/><path class="st0" d="M80.9 71.2c0 .3-.2.5-.5.5s-.5-.2-.5-.5V67c0-.2.1-.4.3-.5l4-2c.3-.1.6 0 .7.2.1.3 0 .6-.2.7L81 67.3v3.9h-.1z"/><path class="st0" d="M86.4 65.8c.3-.1.6 0 .7.3.1.3 0 .6-.3.7l-3.6 1.6v3.2c0 .3-.2.5-.5.5s-.5-.2-.5-.5v-3.5c0-.2.1-.4.3-.5l3.9-1.8zM86.5 72.2c0 .3-.2.5-.5.5s-.5-.2-.5-.5v-3c0-.2.2-.4.4-.5l2.9-1.2c.3-.1.6 0 .7.3.1.3 0 .6-.3.7l-2.6 1v2.7h-.1zM88.3 61.3c-.3.1-.6 0-.7-.3-.1-.3 0-.6.3-.7l3.4-1.7c.3-.1.6 0 .7.3.1.3 0 .6-.3.7l-3.4 1.7zM89.9 62.6c-.3.1-.6 0-.7-.3-.1-.3 0-.6.3-.7l3.4-1.7c.3-.1.6 0 .7.3.1.3 0 .6-.3.7l-3.4 1.7zM92.2 63.7c-.3.1-.6 0-.7-.3-.1-.3 0-.6.3-.7l3.4-1.7c.3-.1.6 0 .7.3.1.3 0 .6-.3.7l-3.4 1.7zM93.8 65.2c-.3.1-.6 0-.7-.3-.1-.3 0-.6.3-.7l3.4-1.7c.3-.1.6 0 .7.3.1.3 0 .6-.3.7l-3.4 1.7z"/><path class="st0" d="M72.9 64.5V74l16.4 2.2v-5.9c0-.2.1-.4.3-.5l9.8-5.7-10.7-7.5-15.8 7.9zm-1.1 10V64.2c0-.2.1-.4.3-.5l16.4-8.2c.2-.1.4-.1.6 0l11.7 8.2c.1 0 .1.1.2.2.1.3.1.6-.2.7l-10.3 6v6.3c0 .3-.3.5-.6.5l-17.4-2.3c-.4 0-.7-.3-.7-.6z"/><path class="st0" d="M90.4 70.5l.1 5.8 7.5.9-.3-4.5c0-.2.1-.4.3-.5l6.8-4.4-4.4-3-10 5.7zm-1 6.3l-.1-6.6c0-.2.1-.4.3-.5l10.5-6c.2-.1.4-.1.6 0l5.4 3.7c.1 0 .1.1.2.2.2.3.1.6-.2.8L98.8 73l.3 4.8v.1c0 .3-.3.5-.6.5l-8.6-1.1c-.2 0-.5-.2-.5-.5z"/><path class="st0" d="M98.9 78.4c-.2.2-.6.1-.8-.1-.1-.3-.1-.6.1-.8l3.6-2.7c.2-.2.6-.1.8.1.2.2.1.6-.1.8l-3.6 2.7zM105.3 67.9c0-.3.2-.6.5-.6s.6.2.6.5l.3 4.1c0 .3-.2.6-.5.6s-.6-.2-.6-.5l-.3-4.1z"/><path class="st0" d="M121.4 86.3c-3.5-5.1-8.7-7.1-14.7-9.5-1.6-.6-3.2-1.3-4.9-2-.8-.3-1.2-.8-1.4-1.2-.1-.3-.1-.6.1-.9.1-.2.4-.4.7-.6.7-.3 2.1-.2 4.1.5 5.3 1.8 10 4 13.6 6.6 3.6 2.6 6.1 5.6 6.8 9.2.9 4.5-.8 8.2-5 11.3-4 3-10.3 5.4-18.5 7.3l-29.7 7c-.3.1-.6-.1-.6-.4 0-.1 0-.3.1-.4l1.2-2.1c.1-.1.2-.2.4-.3l29.6-7.2c6.6-1.6 11.4-3.7 14.6-5.9 2.1-1.5 3.5-3 4.3-4.6.8-1.5 1-3 .6-4.4-.4-.9-.7-1.7-1.3-2.4zm-14.3-10.6c6.2 2.4 11.5 4.5 15.2 9.9.6.9 1 1.8 1.3 2.8.4 1.7.2 3.5-.7 5.2-.9 1.7-2.4 3.4-4.7 5-3.3 2.3-8.2 4.5-15 6.1l-29.4 7.2-.5.8 28.6-6.8c8.1-1.9 14.3-4.3 18.2-7.1 3.8-2.8 5.4-6.2 4.6-10.2-.7-3.2-3-6-6.4-8.5-3.5-2.5-8.1-4.6-13.3-6.4-1.7-.6-2.9-.7-3.4-.5-.1 0-.1.1-.2.1.1.2.3.4.8.6 1.7.6 3.3 1.2 4.9 1.8zm-35.2 37.5zM15.2 24.7c0-.3.3-.5.6-.5s.5.3.5.6c-.5 9 0 16.8 1.4 23.7 1.4 6.9 3.7 12.8 6.7 17.9.2.3.1.6-.2.7-.3.2-.6.1-.7-.2-3.1-5.2-5.5-11.2-6.9-18.2-1.5-7-2-14.9-1.4-24zm14.5 50.5c-.2-.2-.2-.6 0-.8.2-.2.6-.2.8 0 3.9 4.1 8.5 7.5 13.8 10.3 5.3 2.8 11.1 5 17.5 6.7.3.1.5.4.4.7-.1.3-.4.5-.7.4-6.5-1.7-12.4-4-17.8-6.8-5.3-2.8-10-6.3-14-10.5zM6.4 70.9c-.3 0-.5-.3-.5-.6s.3-.5.6-.5c2.9.1 5.7.2 8.4.1s5.4-.3 8-.5c.3 0 .6.2.6.5s-.2.6-.5.6c-2.6.3-5.3.5-8.1.5-2.8.1-5.6.1-8.5-.1zm27.1-2.3c-.3.1-.6-.1-.7-.4-.1-.3.1-.6.4-.7 8.6-2.1 16.1-5.5 22.4-10.3 6.1-4.7 11-10.7 14.5-18 .1-.3.5-.4.7-.3.3.1.4.5.3.7-3.6 7.5-8.6 13.6-14.8 18.4-6.3 5.1-14 8.5-22.8 10.6zm41.4-39c-.1.3-.4.5-.7.4-.3-.1-.5-.4-.4-.7.7-2.5 1.2-5.2 1.6-7.9.4-2.7.7-5.6.8-8.5 0-.3.3-.5.6-.5s.5.3.5.6c-.1 3-.4 5.9-.8 8.7-.4 2.6-.9 5.3-1.6 7.9zM45.9 2c-.2-.2-.3-.5-.1-.8.2-.2.5-.3.7-.1 2.8 2 5.3 4.1 7.7 6.2 2.4 2.1 4.5 4.2 6.5 6.3.2.2.2.6 0 .8-.2.2-.6.2-.8 0-2-2.1-4.1-4.2-6.4-6.3C51.2 6 48.6 4 45.9 2zm20.7 20.7c-.2-.2-.1-.6.1-.8.2-.2.6-.1.8.1.8 1.1 1.5 2.3 2.1 3.4.7 1.1 1.3 2.3 1.9 3.4.1.3 0 .6-.2.7-.3.1-.6 0-.7-.2-.6-1.1-1.2-2.2-1.8-3.4-.7-1-1.4-2.1-2.2-3.2zm7.8 16.6c-.1-.3.1-.6.4-.7.3-.1.6.1.7.4.4 1.6.8 3.2 1.1 4.9.3 1.6.5 3.3.6 4.9 0 .3-.2.6-.5.6s-.6-.2-.6-.5c-.1-1.6-.3-3.2-.6-4.8-.4-1.7-.7-3.3-1.1-4.8zm-3 37.7c.1-.3.4-.4.7-.3.3.1.4.4.3.7-.8 2.1-1.7 4.2-2.7 6.4-1 2.1-2 4.3-3.2 6.5-.1.3-.5.4-.7.2-.3-.1-.4-.5-.2-.7 1.1-2.2 2.2-4.3 3.2-6.4.9-2.2 1.8-4.3 2.6-6.4z"/><path class="st0" d="M21.2 16.5c-.3.1-.6-.1-.6-.4-.1-.3.1-.6.4-.6 7.1-1.5 13.7-2.4 20-2.5 6.3-.1 12.3.7 18.2 2.5.3.1.4.4.4.7-.1.3-.4.4-.7.4-5.7-1.8-11.6-2.5-17.9-2.4-6.3-.1-12.8.8-19.8 2.3zm47.4 4c-.3-.1-.4-.5-.2-.7.1-.3.5-.4.7-.2 3.9 2.1 7.7 4.6 11.5 7.8 3.8 3.1 7.6 6.9 11.5 11.2.2.2.2.6 0 .8-.2.2-.6.2-.8 0-3.8-4.3-7.6-8-11.4-11.1-3.7-3.2-7.5-5.7-11.3-7.8z"/><path class="st0" d="M16.5 13.4c1.6 0 3.1.7 4.2 1.7 1.1 1.1 1.7 2.6 1.7 4.2s-.7 3.1-1.7 4.2c-1.1 1.1-2.5 1.7-4.1 1.7-1.6 0-3.1-.7-4.2-1.7-1.1-1.1-1.7-2.6-1.7-4.2s.7-3.1 1.7-4.2c1-1 2.5-1.7 4.1-1.7zm3.4 2.5c-.9-.9-2.1-1.4-3.4-1.4-1.3 0-2.5.5-3.4 1.4-.9.9-1.4 2.1-1.4 3.4 0 1.3.5 2.6 1.4 3.4.9.9 2.1 1.4 3.4 1.4 1.3 0 2.5-.5 3.4-1.4.9-.9 1.4-2.1 1.4-3.4 0-1.3-.5-2.5-1.4-3.4zM63.9 12.1c1.6 0 3.1.7 4.2 1.7 1.1 1.1 1.7 2.6 1.7 4.2s-.7 3.1-1.7 4.2C67 23.4 65.5 24 63.9 24s-3.1-.7-4.2-1.7c-1.1-1.1-1.7-2.6-1.7-4.2s.7-3.1 1.7-4.2c1.1-1.1 2.6-1.8 4.2-1.8zm3.4 2.5c-.9-.9-2.1-1.4-3.4-1.4-1.3 0-2.5.5-3.4 1.4-.9.9-1.4 2.1-1.4 3.4 0 1.3.5 2.6 1.4 3.4.9.9 2.1 1.4 3.4 1.4 1.3 0 2.5-.5 3.4-1.4.9-.9 1.4-2.1 1.4-3.4 0-1.3-.5-2.5-1.4-3.4zM72.3 28.5c1.6 0 3.1.7 4.2 1.7 1.1 1.1 1.7 2.6 1.7 4.2s-.7 3.1-1.7 4.2c-1.1 1.1-2.5 1.7-4.2 1.7-1.6 0-3.1-.7-4.2-1.7-1.1-1.1-1.7-2.6-1.7-4.2s.7-3.1 1.7-4.2c1.1-1.1 2.5-1.7 4.2-1.7zm3.4 2.5c-.9-.9-2.1-1.4-3.4-1.4-1.3 0-2.5.5-3.4 1.4-.9.9-1.4 2.1-1.4 3.4s.5 2.6 1.4 3.4c.9.9 2.1 1.4 3.4 1.4 1.3 0 2.5-.5 3.4-1.4.9-.9 1.4-2.1 1.4-3.4s-.6-2.5-1.4-3.4zM28.3 63.8c1.6 0 3.1.7 4.2 1.7 1.1 1.1 1.7 2.5 1.7 4.2 0 1.6-.7 3.1-1.7 4.2-1.1 1.1-2.5 1.7-4.2 1.7-1.6 0-3.1-.7-4.2-1.7-1.1-1.1-1.7-2.6-1.7-4.2s.7-3.1 1.7-4.2c1.1-1.1 2.6-1.7 4.2-1.7zm3.4 2.5c-.9-.9-2.1-1.4-3.4-1.4-1.3 0-2.5.5-3.4 1.4-.9.9-1.4 2.1-1.4 3.4 0 1.3.5 2.6 1.4 3.4.9.9 2.1 1.4 3.4 1.4 1.3 0 2.5-.5 3.4-1.4.9-.9 1.4-2.1 1.4-3.4 0-1.3-.5-2.5-1.4-3.4z"/><path class="st0" d="M78.9 80.2c.2-.2.6-.2.8 0 .2.2.2.6 0 .8-4.3 4.4-9.5 7.9-15.2 10.3-5.5 2.3-11.6 3.6-17.9 3.6-12.9 0-24.5-5.3-32.9-13.7C5.2 72.7 0 60.9 0 48c0-13 5.2-24.7 13.6-33.2 8.5-8.5 20.1-13.7 33-13.7h.5c14 .1 25.5 6 33.5 14.8s12.6 20.6 12.6 32.5v.4c0 1-.2 3.2-.3 4.5l-.1.6c0 .3-.3.5-.6.5s-.5-.3-.5-.6l.1-.6c.1-1.3.3-3.5.3-4.4v-.4c0-11.7-4.4-23.2-12.3-31.8C71.9 8 60.7 2.3 47 2.2h-.4c-12.6 0-24 5.1-32.2 13.4C6.2 23.9 1.1 35.3 1.1 48c0 12.6 5.1 24.1 13.3 32.4 8.2 8.3 19.6 13.4 32.2 13.4 6.2 0 12.1-1.2 17.5-3.5 5.6-2.4 10.6-5.8 14.8-10.1z"/></svg>