<?xml version="1.0" encoding="UTF-8" standalone="no"?>
<!-- Generator: Adobe Illustrator 18.1.1, SVG Export Plug-In . SVG Version: 6.00 Build 0)  -->

<svg
   xmlns:dc="http://purl.org/dc/elements/1.1/"
   xmlns:cc="http://creativecommons.org/ns#"
   xmlns:rdf="http://www.w3.org/1999/02/22-rdf-syntax-ns#"
   xmlns:svg="http://www.w3.org/2000/svg"
   xmlns="http://www.w3.org/2000/svg"
   xmlns:sodipodi="http://sodipodi.sourceforge.net/DTD/sodipodi-0.dtd"
   xmlns:inkscape="http://www.inkscape.org/namespaces/inkscape"
   version="1.1"
   id="Слой_1"
   x="0px"
   y="0px"
   viewBox="0 0 228 35"
   enable-background="new 0 0 228 35"
   xml:space="preserve"
   inkscape:version="0.48.5 r10040"
   width="100%"
   height="100%"
   sodipodi:docname="logo.svg"><metadata
   id="metadata57"><rdf:RDF><cc:Work
       rdf:about=""><dc:format>image/svg+xml</dc:format><dc:type
         rdf:resource="http://purl.org/dc/dcmitype/StillImage" /></cc:Work></rdf:RDF></metadata><defs
   id="defs55" /><sodipodi:namedview
   pagecolor="#ffffff"
   bordercolor="#666666"
   borderopacity="1"
   objecttolerance="10"
   gridtolerance="10"
   guidetolerance="10"
   inkscape:pageopacity="0"
   inkscape:pageshadow="2"
   inkscape:window-width="1920"
   inkscape:window-height="1013"
   id="namedview53"
   showgrid="false"
   inkscape:zoom="1.0350877"
   inkscape:cx="23.813303"
   inkscape:cy="-186.72991"
   inkscape:window-x="-9"
   inkscape:window-y="-9"
   inkscape:window-maximized="1"
   inkscape:current-layer="Слой_1" />
<path
   fill="none"
   d="M134.5589,29.1104c0.0909,0,0.2315-0.0099,0.3223,0.0876c0.0908,0.0881,0.0802,0.2247,0.0802,0.3227v5.4046  h1.3317v-5.913c0-0.2344-0.0409-0.4789-0.2527-0.6839c-0.2421-0.2349-0.5145-0.2443-0.796-0.2443h-4.1766  c-0.3223,0-0.5432,0.0094-0.796,0.2443c-0.2315,0.2149-0.2618,0.4397-0.2618,0.6839v5.913h1.3301v-5.4046  c0-0.1173,0.0212-0.2542,0.0908-0.3227c0.0909-0.0975,0.2119-0.0876,0.324-0.0876H134.5589L134.5589,29.1104z"
   id="path3"
   style="fill:#ff7200;fill-opacity:1" />
<path
   fill="none"
   d="M140.9329,28.0058c-0.8582,0-2.0278,0-2.8148,0.7233c-0.7657,0.7035-0.8156,1.847-0.8156,2.7756  c0,0.7723,0,2.0134,0.8156,2.7756c0.7779,0.7232,1.9779,0.7232,2.8148,0.7232c0.7975,0,2.058,0,2.8147-0.7232  c0.7657-0.7329,0.7959-2.0427,0.7959-2.7756c0-0.8993-0.0801-2.0916-0.7959-2.7756  C142.9802,28.0058,141.75,28.0058,140.9329,28.0058L140.9329,28.0058z M138.6734,31.5047c0-1.0461,0.1711-1.5541,0.4541-1.896  c0.4646-0.5573,1.1803-0.5767,1.7948-0.5767c0.5856,0,1.3513,0.0194,1.8053,0.5767c0.2724,0.3323,0.4449,0.8698,0.4449,1.896  c0,1.0068-0.1816,1.5636-0.4449,1.8862c-0.454,0.5669-1.2091,0.5862-1.8053,0.5862c-0.7961,0-1.3817-0.0683-1.7948-0.5862  C138.8354,33.0294,138.6734,32.4821,138.6734,31.5047L138.6734,31.5047z"
   id="path5"
   style="fill:#ff7200;fill-opacity:1" />
<path
   fill="none"
   d="M146.8845,34.9253v-2.4238h3.3081c0.413,0,0.8171-0.127,1.0789-0.3324  c0.5554-0.4394,0.6145-1.3194,0.6145-1.8762c0-0.5768-0.0501-1.3489-0.5342-1.7984c-0.4329-0.4104-1.0291-0.4104-1.4014-0.4104  h-3.3594c-0.2421,0-0.5644,0.0388-0.796,0.2638c-0.2421,0.2346-0.2421,0.5081-0.2421,0.7625v5.8149H146.8845L146.8845,34.9253z   M146.8845,31.4752v-1.9545c0-0.1173,0-0.2346,0.0909-0.3227c0.0999-0.0975,0.2209-0.0876,0.3117-0.0876h2.1489  c0.2209,0,0.5946,0.0095,0.8262,0.2343c0.2225,0.2247,0.2527,0.6351,0.2527,0.9384c0,0.2639-0.0196,0.7034-0.2315,0.938  c-0.233,0.2541-0.5751,0.2541-0.8671,0.2541H146.8845L146.8845,31.4752z"
   id="path7"
   style="fill:#ff7200;fill-opacity:1" />
<path
   fill="none"
   d="M159.1391,34.9253v-5.7665c0-0.3122-0.0106-0.5568-0.283-0.8013c-0.2527-0.2346-0.5554-0.2734-0.7763-0.2734  h-3.4593c-0.6054,0-1.1305,0.078-1.4937,0.6253c-0.3328,0.4985-0.3328,1.0852-0.3328,1.5345c0,0.567,0.0301,1.1532,0.3131,1.6223  c0.2421,0.4008,0.6659,0.6742,1.2303,0.6742h0.9186v0.0392l-2.6634,2.3457h1.7145l2.3608-2.2383  c0.2618-0.2539,0.3027-0.4687,0.3027-0.5961v-0.1564c0-0.4101-0.4752-0.42-0.6054-0.42h-1.3922  c-0.3222,0-0.5553-0.1566-0.6659-0.342c-0.1013-0.1566-0.1407-0.4107-0.1407-0.8894c0-0.3325,0.0091-0.7137,0.2422-0.948  c0.2119-0.2152,0.4737-0.2247,0.6855-0.2247h2.2185c0.1317,0,0.2421,0.0095,0.354,0.1074c0.1211,0.1074,0.1408,0.2342,0.1408,0.3421  v5.3654H159.1391L159.1391,34.9253z"
   id="path9"
   style="fill:#ff7200;fill-opacity:1" />
<path
   fill="none"
   d="M160.2377,33.899h-0.5947v1.0263h8.2005V33.899h-0.5948l-2.3712-5.1699  c-0.221-0.4889-0.5039-0.7233-1.129-0.7233c-0.7157,0-0.9489,0.3322-1.1304,0.7233L160.2377,33.899L160.2377,33.899z   M163.5775,29.462c0.0198-0.0586,0.0908-0.2148,0.171-0.2148s0.1301,0.1562,0.1605,0.2148l1.9778,4.437h-4.2871L163.5775,29.462  L163.5775,29.462z"
   id="path11"
   style="fill:#ff7200;fill-opacity:1" />
<path
   fill="none"
   d="M171.7766,28.0058c-0.8566,0-2.0264,0-2.8134,0.7233c-0.7671,0.7035-0.8171,1.847-0.8171,2.7756  c0,0.7723,0,2.0134,0.8171,2.7756c0.7764,0.7232,1.9764,0.7232,2.8134,0.7232c0.7973,0,2.058,0,2.8146-0.7232  c0.7672-0.7329,0.7975-2.0427,0.7975-2.7756c0-0.8993-0.0818-2.0916-0.7975-2.7756  C173.8255,28.0058,172.5936,28.0058,171.7766,28.0058L171.7766,28.0058z M169.5171,31.5047c0-1.0461,0.1726-1.5541,0.454-1.896  c0.4646-0.5573,1.1803-0.5767,1.7963-0.5767c0.5841,0,1.3513,0.0194,1.8054,0.5767c0.2723,0.3323,0.4433,0.8698,0.4433,1.896  c0,1.0068-0.1815,1.5636-0.4433,1.8862c-0.4541,0.5669-1.2107,0.5862-1.8054,0.5862c-0.7975,0-1.3817-0.0683-1.7963-0.5862  C169.6791,33.0294,169.5171,32.4821,169.5171,31.5047L169.5171,31.5047z"
   id="path13"
   style="fill:#ff7200;fill-opacity:1" />
<path
   fill="none"
   d="M176.3965,34.9253h1.3317v-6.8412h-1.3317V34.9253L176.3965,34.9253z M183.1548,34.9253l-3.3383-2.8829  c-0.2027-0.1762-0.4539-0.4108-0.4539-0.6256c0-0.1465,0.1406-0.313,0.3721-0.5279l3.0463-2.8048h-1.6435l-2.6724,2.5605  c-0.3434,0.3323-0.3843,0.6352-0.3843,0.7722c0,0.1761,0.0712,0.5082,0.4842,0.8796l2.9056,2.6289H183.1548L183.1548,34.9253z"
   id="path15"
   style="fill:#ff7200;fill-opacity:1" />
<path
   fill="none"
   d="M186.776,28.0841c-0.2223,0-0.5341,0.0388-0.746,0.2832c-0.1513,0.176-0.2225,0.4498-0.2225,0.7039v4.8866  c0,0.3909,0.171,0.6157,0.2421,0.6938c0.283,0.313,0.6054,0.2737,0.958,0.2737h3.3791c0.4343,0,0.8883,0,1.2908-0.4398  c0.4041-0.4399,0.4041-0.9874,0.4041-1.4365c0-0.3814,0-0.8701-0.3329-1.2219c-0.171-0.1859-0.4435-0.3324-0.7763-0.3614v-0.0393  c0.2617-0.0193,0.463-0.1173,0.6644-0.3519c0.3132-0.3614,0.3344-0.7426,0.3344-1.114c0-0.4494-0.0515-1.0751-0.4449-1.466  c-0.3723-0.3716-0.8975-0.4104-1.2803-0.4104H186.776L186.776,28.0841z M187.1392,30.9573v-1.4659  c0-0.0783,0.0106-0.2153,0.0908-0.3029c0.0803-0.088,0.1923-0.0781,0.3027-0.0781h2.1776c0.2224,0,0.4646,0,0.6568,0.1757  c0.2208,0.2053,0.2316,0.5472,0.2316,0.7329c0,0.4691-0.1015,0.6356-0.1514,0.6941c-0.1817,0.2442-0.4646,0.2442-0.7264,0.2442  H187.1392L187.1392,30.9573z M187.1392,31.9838h2.7028c0.4343,0,0.6356,0.1758,0.7157,0.2832  c0.1317,0.1859,0.1514,0.4985,0.1514,0.6938c0,0.215-0.0303,0.5181-0.1816,0.694c-0.2012,0.2346-0.5645,0.2442-0.7764,0.2442  h-2.0974c-0.1013,0-0.3238,0.0098-0.4342-0.1075c-0.05-0.0586-0.0803-0.1759-0.0803-0.4006V31.9838L187.1392,31.9838z"
   id="path17"
   style="fill:#ff7200;fill-opacity:1" />
<path
   fill="none"
   d="M201.1794,34.9253V33.899h-2.391c-0.8368,0-1.4814-0.1169-1.8462-0.6547  c-0.1406-0.2149-0.3314-0.6353-0.3314-1.6614c0-1.0164,0.18-1.535,0.3935-1.8377c0.4025-0.5864,1.0683-0.6348,1.8553-0.6348h2.2094  v-1.0263h-2.8344c-0.5055,0-1.6041,0.0586-2.3108,0.8599c-0.5947,0.6745-0.6854,1.6811-0.6854,2.6583  c0,0.7527,0.0498,1.7985,0.7157,2.5215c0.6567,0.7136,1.5738,0.8015,2.2502,0.8015H201.1794L201.1794,34.9253z"
   id="path19"
   style="fill:#ff7200;fill-opacity:1" />
<path
   fill="none"
   d="M207.7456,34.9253V33.899h-3.7727c-0.2118,0-0.3723-0.0096-0.4539-0.0876  c-0.0605-0.0492-0.0999-0.1566-0.0999-0.264v-1.6031h4.1856v-1.026h-4.1856V29.54c0-0.0976,0-0.2346,0.1105-0.3321  c0.1013-0.088,0.2421-0.0975,0.3631-0.0975h3.812v-1.0263h-4.5277c-0.2724,0-0.616,0.0194-0.8475,0.2638  c-0.1514,0.1661-0.2421,0.4399-0.2421,0.7134v4.8475c0,0.264,0.0196,0.5767,0.2618,0.8014c0.233,0.2151,0.5039,0.2151,0.8066,0.2151  H207.7456L207.7456,34.9253z"
   id="path21"
   style="fill:#ff7200;fill-opacity:1" />
<path
   fill="none"
   d="M212.0326,34.9253v-5.8149h2.7633v-1.0263h-6.8491v1.0263h2.7542v5.8149H212.0326L212.0326,34.9253z"
   id="path23"
   style="fill:#ff7200;fill-opacity:1" />
<path
   fill="none"
   d="M222.0188,34.9253v-5.6881c0-0.3418-0.0213-1.2314-1.0805-1.2314c-0.4843,0-0.796,0.1563-1.1803,0.7623  l-2.8435,4.5154c-0.0606,0.0975-0.1105,0.2146-0.1922,0.2146c-0.1302,0-0.121-0.1561-0.121-0.3126l0.0302-5.1014h-1.3316v5.7463  c0,0.391,0.0211,1.1731,1.0395,1.1731c0.7158,0,0.9276-0.342,1.1199-0.6452l2.9039-4.5445  c0.1015-0.1565,0.1816-0.3127,0.2634-0.3127c0.0908,0,0.0998,0.1174,0.0998,0.2249l-0.0393,5.1993H222.0188L222.0188,34.9253z"
   id="path25"
   style="fill:#ff7200;fill-opacity:1" />
<path
   fill-rule="evenodd"
   clip-rule="evenodd"
   fill="none"
   d="M13.3646,6.4272v2.642H6.8794v-2.642H13.3646L13.3646,6.4272z"
   id="path27"
   style="fill:#ff7200;fill-opacity:1" />
<path
   fill="none"
   d="M66.0778,21.0854V5.1591h2.0693l6.5199,9.3191l6.5322-9.3191h2.069v15.9263h-2.4829V9.6343l-6.1183,8.8539  l-6.1063-8.8539v11.4511H66.0778L66.0778,21.0854z"
   id="path29"
   style="fill-opacity:1;fill:#0e58a8" />
<path
   fill="none"
   d="M91.4434,14.9364h6.2269L94.5759,8.832L91.4434,14.9364L91.4434,14.9364z M85.6685,21.0854l8.1053-15.9263  h1.566l8.169,15.9263h-2.668l-2.0692-4.0484H90.361l-2.0564,4.0484H85.6685L85.6685,21.0854z"
   id="path31"
   style="fill-opacity:1;fill:#0e58a8" />
<path
   fill="none"
   d="M108.4048,11.8044h8.4677c0.8593,0,1.5158-0.1844,1.9673-0.5599c0.4525-0.3757,0.6817-0.9103,0.6817-1.6102  c0-0.6939-0.2292-1.2287-0.6817-1.5917c-0.4515-0.369-1.108-0.5537-1.9673-0.5537h-8.4677V11.8044L108.4048,11.8044z   M108.4048,14.1345v6.9509h-2.4831V5.1973h10.9508c1.6304,0,2.9033,0.3949,3.8269,1.1779c0.9234,0.7829,1.3817,1.8713,1.3817,3.2654  c0,1.1262-0.3631,2.1065-1.0954,2.9345c-0.7252,0.8271-1.6739,1.3366-2.846,1.521l4.4375,6.9893h-2.7051l-4.5211-6.9509H108.4048  L108.4048,14.1345z"
   id="path33"
   style="fill-opacity:1;fill:#0e58a8" />
<path
   fill="none"
   d="M130.3706,21.0854V7.3743h-6.7233V5.1591h15.9294v2.2152h-6.7232v13.7111H130.3706L130.3706,21.0854z"
   id="path35"
   style="fill-opacity:1;fill:#0e58a8" />
<path
   fill="none"
   d="M140.2195,9.7039h8.0615v2.2535h-8.0615V9.7039L140.2195,9.7039z"
   id="path37"
   style="fill-opacity:1;fill:#0e58a8" />
<path
   fill="none"
   d="M150.2861,17.9853l1.4895-2.2086c1.4585,1.1266,2.9732,1.9857,4.5463,2.5842  c1.5731,0.592,3.1324,0.8914,4.6735,0.8914c1.9031,0,3.4511-0.4011,4.6346-1.2095c1.1904-0.8083,1.7828-1.846,1.7828-3.1127  c0-1.0058-0.4262-1.8334-1.2798-2.4824c-0.8525-0.6492-2.0303-1.0375-3.5335-1.1647c-0.3621-0.0385-0.8845-0.0765-1.5663-0.1086  c-3.3868-0.2417-5.6921-0.6365-6.9272-1.1965c-0.9544-0.4648-1.6866-1.0568-2.1837-1.7822  c-0.4961-0.7323-0.7448-1.5468-0.7448-2.4574c0-1.6548,0.739-3.0168,2.2227-4.0927c1.4769-1.0695,3.3995-1.6042,5.7609-1.6042  c1.7197,0,3.4132,0.2798,5.0872,0.8466c1.675,0.5665,3.2665,1.4068,4.7685,2.5141l-1.4894,2.1391  c-1.273-1.0246-2.6032-1.795-4.0044-2.3172c-1.4013-0.5153-2.8392-0.7766-4.3172-0.7766c-1.5526,0-2.8323,0.3054-3.8452,0.9104  c-1.006,0.6049-1.5089,1.3623-1.5089,2.2725c0,0.3565,0.0825,0.6876,0.2417,0.9865c0.1592,0.2993,0.4136,0.5857,0.7448,0.8466  c0.8467,0.6304,2.6742,1.0376,5.4881,1.2097c1.2935,0.0761,2.2983,0.1523,3.0053,0.2417c2.0887,0.2354,3.7444,0.9038,4.9669,2.0117  c1.2156,1.1071,1.8275,2.463,1.8275,4.08c0,1.9223-0.8342,3.5071-2.5092,4.7486c-1.6739,1.2412-3.8704,1.8649-6.5836,1.8649  c-2.0497,0-3.9597-0.2989-5.7173-0.8909C153.5526,20.1302,151.8775,19.2201,150.2861,17.9853L150.2861,17.9853z"
   id="path39"
   style="fill-opacity:1;fill:#0e58a8" />
<path
   fill="none"
   d="M183.0443,19.2523c2.1265,0,3.8646-0.5732,5.2075-1.7253c1.3439-1.1459,2.0118-2.6098,2.0118-4.3858  c0-1.7631-0.6748-3.2207-2.0244-4.3793c-1.3498-1.1517-3.081-1.7312-5.1949-1.7312c-2.1139,0-3.8395,0.5728-5.1765,1.7249  c-1.3371,1.1458-2.0051,2.6098-2.0051,4.3856c0,1.776,0.668,3.2399,2.0051,4.3858  C179.2048,18.6791,180.9304,19.2523,183.0443,19.2523L183.0443,19.2523z M183.0443,21.5817c-2.8334,0-5.1708-0.8019-6.9971-2.4056  c-1.8275-1.5981-2.7452-3.6094-2.7452-6.0349c0-2.4313,0.9109-4.4429,2.7325-6.0278c1.8264-1.585,4.1638-2.3744,7.0098-2.3744  c2.8712,0,5.2212,0.7894,7.0475,2.3679c1.8206,1.5788,2.7315,3.5904,2.7315,6.0343c0,2.4385-0.9167,4.4497-2.7441,6.0472  C188.2518,20.7861,185.9086,21.5817,183.0443,21.5817L183.0443,21.5817z"
   id="path41"
   style="fill-opacity:1;fill:#0e58a8" />
<path
   fill="none"
   d="M197.7168,13.7524v7.333h-2.4829V5.1591h14.7081v2.3298h-12.2252v3.9718h7.9079v2.2917H197.7168  L197.7168,13.7524z"
   id="path43"
   style="fill-opacity:1;fill:#0e58a8" />
<path
   fill="none"
   d="M218.7917,21.0854V7.4889h-6.7232V5.1591h15.9305v2.3298h-6.7232v13.5965H218.7917L218.7917,21.0854z"
   id="path45"
   style="fill-opacity:1;fill:#0e58a8" />
<path
   fill="none"
   d="M41.6859,17.9853l1.4901-2.2086c1.458,1.1266,2.9732,1.9857,4.546,2.5842  c1.5724,0.592,3.1323,0.8914,4.6733,0.8914c1.9034,0,3.4507-0.4011,4.6351-1.2095c1.1905-0.8083,1.7825-1.846,1.7825-3.1127  c0-1.0058-0.4265-1.8334-1.2798-2.4824c-0.8527-0.6492-2.0308-1.0375-3.5335-1.1647c-0.3629-0.0385-0.885-0.0765-1.5663-0.1086  c-3.3873-0.2417-5.692-0.6365-6.9271-1.1965c-0.9548-0.4648-1.6871-1.0568-2.1838-1.7822  c-0.4967-0.7323-0.7447-1.5468-0.7447-2.4574c0-1.6548,0.7383-3.0168,2.2219-4.0927c1.4771-1.0695,3.4-1.6042,5.7616-1.6042  c1.7192,0,3.4127,0.2798,5.0874,0.8466c1.6746,0.5665,3.2663,1.4068,4.7687,2.5141l-1.4895,2.1391  c-1.2735-1.0246-2.604-1.795-4.005-2.3172c-1.4007-0.5153-2.8394-0.7766-4.3169-0.7766c-1.553,0-2.8332,0.3054-3.8455,0.9104  c-1.0062,0.6049-1.5089,1.3623-1.5089,2.2725c0,0.3565,0.0828,0.6876,0.2421,0.9865c0.159,0.2993,0.4135,0.5857,0.7447,0.8466  c0.8467,0.6304,2.6742,1.0376,5.4884,1.2097c1.2927,0.0761,2.2984,0.1523,3.005,0.2417c2.0885,0.2354,3.7438,0.9038,4.9663,2.0117  c1.2163,1.1071,1.8275,2.463,1.8275,4.08c0,1.9223-0.8344,3.5071-2.5089,4.7486c-1.6742,1.2412-3.8709,1.8649-6.5833,1.8649  c-2.0502,0-3.9602-0.2989-5.7175-0.8909C44.9522,20.1302,43.2777,19.2201,41.6859,17.9853L41.6859,17.9853z"
   id="path47"
   style="fill-opacity:1;fill:#0e58a8" />
<path
   fill-rule="evenodd"
   clip-rule="evenodd"
   fill="none"
   d="M0.6817,21.6396l17.3282-0.0012c2.0434,0,3.9817-0.8112,5.4256-2.2553  c1.4443-1.444,2.256-3.3823,2.256-5.4256c0-2.0431-0.812-3.9813-2.256-5.4252c-1.4127-1.4128-3.4509-2.1051-5.4256-2.1051h-2.5081  v2.642h2.5081c1.2981,0,2.5338,0.5209,3.4506,1.4377c0.9179,0.9172,1.4383,2.1517,1.4383,3.4506  c0,1.2996-0.5196,2.5334-1.4383,3.451c-0.9168,0.9163-2.1534,1.4377-3.4506,1.4377H2.0575L0.6817,21.6396L0.6817,21.6396z"
   id="path49"
   style="fill:#0e58a8;fill-opacity:1" />
<path
   fill-rule="evenodd"
   clip-rule="evenodd"
   fill="none"
   d="M24.1786-0.0003L7.682,0.0008c-2.0437,0-3.982,0.8116-5.4263,2.2556  C0.8118,3.7001,0,5.6386,0,7.6817s0.8118,3.9816,2.2557,5.4253c1.4127,1.4126,3.4516,2.1048,5.4263,2.1048h9.8243V12.57H7.682  c-1.2987,0-2.5338-0.5202-3.4512-1.4375C3.3132,10.215,2.7925,8.9807,2.7925,7.6817c0-1.2997,0.5199-2.5331,1.4383-3.4507  C5.1476,3.3143,6.3842,2.7934,7.682,2.7934h15.1211L24.1786-0.0003L24.1786-0.0003z"
   id="path51"
   style="fill:#0e58a8;fill-opacity:1" />
</svg>