<?xml version="1.0" encoding="UTF-8" standalone="no"?>
<!-- Generator: Adobe Illustrator 18.1.1, SVG Export Plug-In . SVG Version: 6.00 Build 0)  -->

<svg
   xmlns:dc="http://purl.org/dc/elements/1.1/"
   xmlns:cc="http://creativecommons.org/ns#"
   xmlns:rdf="http://www.w3.org/1999/02/22-rdf-syntax-ns#"
   xmlns:svg="http://www.w3.org/2000/svg"
   xmlns="http://www.w3.org/2000/svg"
   xmlns:sodipodi="http://sodipodi.sourceforge.net/DTD/sodipodi-0.dtd"
   xmlns:inkscape="http://www.inkscape.org/namespaces/inkscape"
   version="1.1"
   id="Слой_1"
   x="0px"
   y="0px"
   viewBox="0 0 46 39"
   enable-background="new 0 0 46 39"
   xml:space="preserve"
   inkscape:version="0.48.5 r10040"
   width="100%"
   height="100%"
   sodipodi:docname="logo-simple.svg"><metadata
   id="metadata13"><rdf:RDF><cc:Work
       rdf:about=""><dc:format>image/svg+xml</dc:format><dc:type
         rdf:resource="http://purl.org/dc/dcmitype/StillImage" /></cc:Work></rdf:RDF></metadata><defs
   id="defs11" /><sodipodi:namedview
   pagecolor="#ffffff"
   bordercolor="#666666"
   borderopacity="1"
   objecttolerance="10"
   gridtolerance="10"
   guidetolerance="10"
   inkscape:pageopacity="0"
   inkscape:pageshadow="2"
   inkscape:window-width="1920"
   inkscape:window-height="1013"
   id="namedview9"
   showgrid="false"
   inkscape:zoom="12.102564"
   inkscape:cx="28.612637"
   inkscape:cy="13.223349"
   inkscape:window-x="-9"
   inkscape:window-y="-9"
   inkscape:window-maximized="1"
   inkscape:current-layer="Слой_1" />
<path
   clip-rule="evenodd"
   d="m 23.931014,11.575773 v 4.760838 H 12.319369 v -4.760838 h 11.611645 l 0,0 z"
   id="path3"
   style="fill:#ff7200;fill-opacity:1;fill-rule:evenodd"
   inkscape:connector-curvature="0" />
<path
   clip-rule="evenodd"
   d="m 1.222615,38.9908 31.024563,-0.002 c 3.658644,-4e-4 7.129255,-1.462958 9.715011,-4.064916 2.585655,-2.602158 4.039211,-6.095273 4.039211,-9.777322 0,-3.682148 -1.453956,-7.175563 -4.039211,-9.777321 -2.529646,-2.546049 -6.178688,-3.793468 -9.715011,-3.793468 h -4.490491 v 4.760838 h 4.490491 c 2.324209,0 4.536999,0.938565 6.179188,2.590756 1.642589,1.653091 2.574854,3.878683 2.574854,6.219195 0,2.342013 -0.930764,4.565204 -2.575254,6.219095 -1.641789,1.651491 -3.855379,2.590356 -6.178788,2.590356 H 3.6855487 L 1.222615,38.9908 l 0,0 z"
   id="path5"
   style="fill:#ffffff;fill-opacity:1;fill-rule:evenodd"
   inkscape:connector-curvature="0" />
<path
   clip-rule="evenodd"
   d="M 43.292223,-0.00796717 13.755922,-0.00606684 C 10.096978,-0.00566677 6.6262666,1.4567908 4.0402112,4.0588489 1.4548559,6.6610071 0.0014,10.153922 0.0014,13.836171 c 0,3.682148 1.4534559,7.175263 4.0388112,9.777421 2.5295454,2.545949 6.1802878,3.792968 9.7157108,3.792968 H 31.345819 V 22.646022 H 13.755922 c -2.325409,0 -4.5368989,-0.937665 -6.1794881,-2.590656 -1.6429893,-1.652991 -2.5748534,-3.878683 -2.5748534,-6.219195 0,-2.341613 0.9306638,-4.5654043 2.5751534,-6.2187955 C 9.218623,5.9655847 11.432513,5.0267194 13.755922,5.0267194 h 27.073267 l 2.463034,-5.03468657 0,0 z"
   id="path7"
   style="fill:#ffffff;fill-opacity:1;fill-rule:evenodd"
   inkscape:connector-curvature="0" />
</svg>